<svg xmlns="http://www.w3.org/2000/svg" style="isolation:isolate" viewBox="1077 602 908.396 171.263" width="1211.195" height="228.351"><path d="M1141.48 643.184a7.87 7.87 0 004.505 7.105c21.505 10.21 37.367 15.393 38.681 25.904 1.132 9.059-2.737 12.882-2.737 12.882s24.032-13.467 24.032-33.124c0-6.757-2.281-12.947-5.275-18.161-5.074-8.837-12.878-15.793-22.04-20.254l-31-15.098c-2.849-1.387-6.166.687-6.166 3.856v36.89z" fill="#0055B8"/><path d="M1195.057 742.108c1.449-1.195 2.766-2.559 3.794-4.131 3.502-5.359 4.509-13.064-4.729-22.801-3.854-4.063-8.566-7.406-14.004-9.937a28247.846 28247.846 0 01-73.942-34.54c-15.923-7.469-24.538-15.361-25.607-23.458-.327-2.477.135-4.638.861-6.406l-.002-.001c-2.622 4.308-4.428 9.232-4.428 14.621 0 6.757 2.281 12.947 5.275 18.161 3.548 6.18 8.435 11.436 14.183 15.566-6.971 5.01-19.458 15.962-19.458 30.133 0 6.674 2.225 12.794 5.165 17.969 5.071 8.924 12.917 15.951 22.145 20.445l31.004 15.096c2.849 1.387 6.166-.687 6.166-3.856v-36.887a7.87 7.87 0 00-4.504-7.105c-21.505-10.21-37.367-15.393-38.681-25.904-.446-3.567-.113-6.311.451-8.34a54.274 54.274 0 005.57 3.138l37.165 18.096v.005c23.763 11.7 41.782 16.849 43.186 28.081 1.132 9.059-2.737 12.882-2.737 12.882l13.127-10.827z" fill="#0082CA"/><path d="M1200.685 701.65c-5.074-8.837-12.878-15.793-22.04-20.254l-37.165-18.102c-23.763-11.7-41.782-16.848-43.186-28.081-1.132-9.059 2.737-12.882 2.737-12.882s-9.01 5.051-15.996 13.479l-.684.846s-.502.657-1.017 1.354c-.708.959-1.333 1.986-1.769 3.095-.669 1.7-1.075 3.763-.765 6.108 1.06 8.012 9.631 15.843 25.474 23.274 32.02 15.02 62.376 29.159 73.941 34.54 5.465 2.543 10.2 5.903 14.075 9.988 5.47 5.765 10.346 14.103 5.027 22.671.342-.456.68-.918 1.006-1.392 3.259-4.731 5.636-10.301 5.636-16.484.001-6.756-2.28-12.946-5.274-18.16z" fill="#0055B8"/><g fill="#2D2D2B"><path d="M1267.412 667.529c1.311 0 2.156.75 2.156 2.063v.563c0 1.97.845 2.906 3 2.906h25.502c3.095 0 4.031-.936 4.031-3.281v-4.22c0-2.343-.936-3.281-4.031-3.281h-30.378c-11.065 0-15.657-4.5-15.657-15.001v-9.751c0-10.501 4.592-15.001 15.657-15.001h36.753c11.437 0 15.282 3.656 15.282 14.721v3.843c0 1.313-.75 2.063-2.156 2.063h-14.064c-1.406 0-2.156-.75-2.156-2.063v-.563c0-1.97-.845-2.906-3.095-2.906h-23.252c-3.092 0-4.031.936-4.031 3.281v3.656c0 2.345.939 3.282 4.031 3.282h30.378c11.065 0 15.66 4.5 15.66 15.001v10.313c0 10.501-4.595 15.001-15.66 15.001h-38.909c-11.532 0-15.282-3.656-15.282-14.721v-3.843c0-1.313.75-2.063 2.156-2.063h14.065v.001zM1350.185 637.621h-22.41c-1.406 0-2.156-.75-2.156-2.064v-10.969c0-1.313.75-2.063 2.156-2.063h63.756c1.409 0 2.159.75 2.159 2.063v10.969c0 1.314-.75 2.064-2.159 2.064h-22.407v48.472c0 1.313-.845 2.063-2.156 2.063h-14.626c-1.406 0-2.156-.75-2.156-2.063v-48.472h-.001zM1439.995 677h-31.597l-3.564 9.187c-.467 1.314-1.406 1.97-3 1.97h-15.468c-1.22 0-1.784-.938-1.314-2.156l25.783-61.505c.47-1.314 1.409-1.97 3.095-1.97h21.377c1.595 0 2.439.656 3 1.97l25.783 61.505c.47 1.218-.092 2.156-1.217 2.156h-16.316c-1.686 0-2.531-.656-3-1.97l-3.562-9.187zm-25.877-14.721h20.063l-10.031-25.877-10.032 25.877zM1498.202 622.525c1.689 0 2.72.656 3.095 1.97l13.312 43.879 13.315-43.879c.375-1.314 1.406-1.97 3.095-1.97h26.344c1.409 0 2.159.75 2.159 2.063v61.505c0 1.313-.75 2.063-2.159 2.063h-14.626c-1.406 0-2.156-.75-2.156-2.063v-47.911l-15.282 48.004c-.375 1.314-1.406 1.97-3.095 1.97h-16.032c-1.689 0-2.625-.656-3-1.97l-15.471-48.379v48.286c0 1.313-.845 2.063-2.156 2.063h-13.126c-1.406 0-2.156-.75-2.156-2.063v-61.505c0-1.313.75-2.063 2.156-2.063h25.783zM1629.348 655.059c7.97 1.125 11.346 5.625 11.346 14.626v3.47c0 10.501-4.595 15.001-15.657 15.001h-51.568c-1.406 0-2.156-.75-2.156-2.063v-61.505c0-1.313.75-2.063 2.156-2.063h50.629c10.97 0 15.66 4.5 15.66 15.001v2.906c0 8.626-3.19 13.221-10.41 14.627zm-39.095-7.312h25.594c3.659 0 4.97-1.22 4.97-4.595v-.938c0-3.375-1.311-4.593-4.97-4.593h-25.594v10.126zm0 14.626v10.687h26.438c3.75 0 5.064-1.218 5.064-4.593v-1.5c0-3.375-1.314-4.593-5.064-4.593h-26.438v-.001zM1718.686 637.527v13.032c0 10.501-4.595 15.94-15.657 15.94h-.284l18.002 19.595c.75.843.283 2.063-.75 2.063h-18.468c-1.784 0-2.534-.375-3.564-1.595l-16.126-19.127h-13.126v18.659c0 1.313-.845 2.063-2.25 2.063h-14.532c-1.406 0-2.156-.75-2.156-2.063v-61.506c0-1.313.75-2.063 2.156-2.063h51.099c11.061 0 15.656 4.501 15.656 15.002zm-49.974 14.814h24.752c5.439 0 6.281-.843 6.281-5.343v-4.032c0-4.5-.842-5.343-6.281-5.343h-24.752v14.718zM1747.829 686.093c0 1.313-.845 2.063-2.25 2.063h-14.532c-1.406 0-2.156-.75-2.156-2.063v-61.505c0-1.313.75-2.063 2.156-2.063h14.532c1.406 0 2.25.75 2.25 2.063v61.505zM1808.389 622.525c13.035 0 20.721 7.22 20.721 19.782v26.066c0 12.562-7.687 19.782-20.721 19.782h-46.504c-1.406 0-2.156-.75-2.156-2.063v-61.504c0-1.313.75-2.063 2.156-2.063h46.504zm-29.719 50.535h22.877c6.281 0 8.626-1.875 8.626-7.219V644.84c0-5.25-2.345-7.219-8.626-7.219h-22.877v35.439zM1892.101 644.558c-1.409 0-2.159-.75-2.159-2.061v-1.97c0-1.97-.936-2.906-3.092-2.906h-22.316c-6.095 0-7.22.936-7.22 6.001v23.438c0 5.064 1.125 6.001 7.22 6.001h22.316c2.156 0 3.092-.936 3.092-2.906v-5.531h-13.501c-1.406 0-2.156-.75-2.156-2.064v-10.312c0-1.314.75-2.064 2.156-2.064h29.722c1.406 0 2.156.75 2.156 2.064v21.188c0 11.065-3.842 14.721-15.376 14.721h-38.814c-10.876 0-15.751-4.5-15.751-15.001v-35.629c0-10.501 4.875-15.001 15.751-15.001h38.814c11.534 0 15.376 3.656 15.376 14.721v5.25c0 1.311-.75 2.061-2.156 2.061h-14.062zM1983.028 622.525c1.409 0 2.159.75 2.159 2.063v10.969c0 1.314-.75 2.064-2.159 2.064h-44.815v10.219h37.503c1.311 0 2.156.75 2.156 2.063v10.313c0 1.313-.845 2.063-2.156 2.063h-37.503v10.781h44.815c1.409 0 2.159.75 2.159 2.064v10.969c0 1.313-.75 2.063-2.159 2.063h-61.597c-1.406 0-2.156-.75-2.156-2.063v-61.505c0-1.313.75-2.063 2.156-2.063h61.597z"/></g><g><path d="M1487.827 714.259h13.386v2.412h-10.583v7.085h9.919v2.503h-9.919v9.527h-2.804v-21.527h.001zM1515.505 714.259h2.924l8.352 21.527h-3.015l-2.261-6h-9.226l-2.261 6h-2.895l8.382-21.527zm5.155 13.115l-3.799-9.98-3.739 9.98h7.538zM1553.072 728.7a9.972 9.972 0 01-.816 3.03 7.614 7.614 0 01-1.721 2.427c-.725.683-1.606 1.216-2.643 1.598-1.037.381-2.24.573-3.609.573-1.49 0-2.828-.252-4.017-.754a8.035 8.035 0 01-3.02-2.201c-.825-.965-1.465-2.146-1.918-3.543-.453-1.397-.68-2.989-.68-4.779 0-1.809.241-3.417.725-4.824.483-1.407 1.157-2.593 2.024-3.557a8.618 8.618 0 013.065-2.201c1.178-.502 2.451-.754 3.821-.754 1.328 0 2.476.171 3.443.512.966.342 1.787.824 2.461 1.447a7.246 7.246 0 011.631 2.231c.413.864.73 1.819.952 2.864l-2.714.452a10.975 10.975 0 00-.71-2.126 5.367 5.367 0 00-1.118-1.613 4.52 4.52 0 00-1.632-1.01c-.635-.231-1.406-.347-2.312-.347-1.068 0-2.02.216-2.857.648a6.073 6.073 0 00-2.115 1.809c-.574.774-1.012 1.709-1.315 2.804-.302 1.096-.454 2.307-.454 3.633s.151 2.538.454 3.633c.302 1.096.74 2.035 1.315 2.819a5.88 5.88 0 002.115 1.809c.836.422 1.798.634 2.886.634.987 0 1.828-.125 2.524-.377.695-.251 1.269-.608 1.722-1.07a5.062 5.062 0 001.073-1.658 9.522 9.522 0 00.574-2.11h2.866v.001zM1563.564 714.259h2.804v21.527h-2.804v-21.527zM1577.856 714.259h2.804v19.055h11.155l-.422 2.472h-13.538v-21.527h.001zM1601.554 714.259h2.804v21.527h-2.804v-21.527zM1621.121 716.731h-7.115v-2.472h17.035v2.472h-7.116v19.055h-2.804v-19.055zM1640.719 714.259h2.804v21.527h-2.804v-21.527zM1655.01 714.259h13.959v2.412h-11.155v6.783h10.553v2.472h-10.553v7.447h11.729l-.453 2.412h-14.08v-21.526zM1680.879 729.635c.241 1.508.84 2.598 1.794 3.272.955.673 2.376 1.01 4.267 1.01.944 0 1.733-.105 2.367-.316.633-.21 1.14-.492 1.523-.843.381-.351.653-.763.814-1.234a4.58 4.58 0 00.241-1.49c0-.421-.05-.828-.151-1.22a2.51 2.51 0 00-.588-1.069c-.292-.322-.693-.602-1.206-.843-.512-.241-1.171-.432-1.975-.572l-2.714-.482c-1.066-.18-2.01-.421-2.834-.722-.824-.301-1.523-.687-2.095-1.159a4.443 4.443 0 01-1.296-1.761c-.292-.702-.437-1.556-.437-2.56 0-.983.205-1.846.617-2.589a5.608 5.608 0 011.674-1.866c.704-.502 1.538-.873 2.503-1.114.965-.241 2.01-.361 3.135-.361 1.428 0 2.619.156 3.573.467.955.312 1.733.728 2.336 1.251a5.334 5.334 0 011.372 1.794c.311.674.547 1.362.709 2.065l-2.593.512a7.686 7.686 0 00-.618-1.613 3.55 3.55 0 00-.995-1.176c-.412-.312-.919-.548-1.523-.709-.603-.161-1.337-.241-2.201-.241-.985 0-1.809.09-2.472.271-.664.18-1.197.426-1.599.737a2.605 2.605 0 00-.859 1.113 3.675 3.675 0 00-.256 1.368c0 .521.065.977.196 1.368.131.391.351.727.664 1.008.311.281.718.521 1.221.722.503.201 1.125.371 1.869.511l3.016.544c2.231.423 3.869 1.122 4.914 2.098 1.045.976 1.568 2.411 1.568 4.302 0 .866-.166 1.676-.499 2.431a5.525 5.525 0 01-1.481 1.978c-.653.563-1.474 1.006-2.461 1.328-.987.322-2.145.483-3.473.483-1.269 0-2.422-.126-3.458-.378-1.037-.253-1.939-.651-2.704-1.196a6.153 6.153 0 01-1.843-2.09c-.463-.848-.745-1.857-.845-3.029h2.803zM1718.928 714.259h3.437l6.935 18.21 7.055-18.21h3.317v21.527h-2.563v-16.975l-6.754 16.975h-2.261l-6.632-16.914v16.914h-2.533v-21.527h-.001zM1757.521 714.259h2.924l8.353 21.527h-3.016l-2.261-6h-9.225l-2.261 6h-2.895l8.381-21.527zm5.155 13.115l-3.798-9.98-3.739 9.98h7.537zM1778.264 714.259h2.744l10.945 17.095v-17.095h2.683v21.527h-2.653l-11.036-17.005v17.005h-2.683v-21.527zM1812.484 714.259h2.924l8.352 21.527h-3.015l-2.261-6h-9.226l-2.261 6h-2.894l8.381-21.527zm5.156 13.115l-3.799-9.98-3.738 9.98h7.537zM1841.821 724.721h8.05v8.623a9.713 9.713 0 01-1.794 1.312 12.572 12.572 0 01-4.252 1.493c-.754.121-1.492.181-2.216.181-1.588 0-3-.256-4.236-.769a8.435 8.435 0 01-3.136-2.216c-.854-.965-1.503-2.145-1.944-3.542-.443-1.397-.664-2.98-.664-4.749 0-1.809.241-3.417.724-4.824.482-1.407 1.151-2.593 2.005-3.557a8.428 8.428 0 013.06-2.201c1.186-.502 2.483-.754 3.889-.754 1.206 0 2.271.148 3.196.443.924.295 1.713.717 2.367 1.267a7.008 7.008 0 011.613 1.954 9.75 9.75 0 01.965 2.517l-2.683.452a8.109 8.109 0 00-.649-1.719 4.584 4.584 0 00-1.04-1.342c-.422-.372-.939-.658-1.553-.859-.613-.201-1.352-.302-2.216-.302-1.125 0-2.11.216-2.955.647a5.847 5.847 0 00-2.11 1.821c-.562.783-.99 1.721-1.281 2.814-.292 1.094-.437 2.303-.437 3.627 0 1.324.141 2.534.422 3.627.281 1.094.719 2.032 1.312 2.814a5.952 5.952 0 002.216 1.806c.884.421 1.93.632 3.136.632 1.085 0 2.105-.131 3.06-.392a7.752 7.752 0 002.578-1.236v-5.155h-5.427v-2.413zM1860.725 714.259h13.959v2.412h-11.155v6.783h10.553v2.472h-10.553v7.447h11.729l-.453 2.412h-14.08v-21.526zM1885.388 714.259h3.436l6.935 18.21 7.056-18.21h3.316v21.527h-2.563v-16.975l-6.753 16.975h-2.261l-6.633-16.914v16.914h-2.532v-21.527h-.001zM1917.649 714.259h13.959v2.412h-11.155v6.783h10.552v2.472h-10.552v7.447h11.728l-.452 2.412h-14.08v-21.526zM1942.311 714.259h2.744L1956 731.354v-17.095h2.683v21.527h-2.653l-11.036-17.005v17.005h-2.683v-21.527zM1975.476 716.731h-7.116v-2.472h17.036v2.472h-7.116v19.055h-2.804v-19.055z" fill="#0082CA"/></g></svg>