<svg version="1.1" id="Layer_1" xmlns="http://www.w3.org/2000/svg" x="0" y="0" viewBox="0 0 164.94 175.582" xml:space="preserve"><style>.st0{fill:#2d2d2b}</style><path class="st0" d="M82.47 43.344a7.87 7.87 0 004.505 7.105c21.505 10.21 37.367 15.393 38.681 25.904 1.132 9.059-2.737 12.882-2.737 12.882s24.032-13.467 24.032-33.124c0-6.757-2.281-12.947-5.275-18.161-5.074-8.837-12.878-15.793-22.04-20.254L88.637 2.598c-2.849-1.388-6.167.687-6.167 3.855v36.891zM136.047 142.268c1.449-1.195 2.766-2.559 3.794-4.131 3.502-5.359 4.509-13.064-4.729-22.801-3.854-4.063-8.566-7.406-14.004-9.937a28247.846 28247.846 0 01-73.942-34.54C31.243 63.39 22.628 55.498 21.559 47.401c-.327-2.477.135-4.638.861-6.406l-.002-.001c-2.622 4.308-4.428 9.232-4.428 14.621 0 6.757 2.281 12.947 5.275 18.161 3.548 6.18 8.435 11.436 14.183 15.566-6.972 5.011-19.459 15.962-19.459 30.133 0 6.674 2.225 12.794 5.165 17.969 5.071 8.924 12.917 15.951 22.145 20.445l31.004 15.096c2.849 1.387 6.166-.687 6.166-3.856v-36.887a7.87 7.87 0 00-4.504-7.105c-21.505-10.21-37.367-15.393-38.681-25.904-.446-3.567-.113-6.311.451-8.34a54.274 54.274 0 005.57 3.138l37.165 18.096v.005c23.763 11.7 41.782 16.849 43.186 28.081 1.132 9.059-2.737 12.882-2.737 12.882l13.128-10.827z"/><linearGradient id="SVGID_1_" gradientUnits="userSpaceOnUse" x1="21.685" y1="80.169" x2="146.951" y2="80.169"><stop offset=".018" stop-color="#f32735"/><stop offset=".296" stop-color="#ffb600"/><stop offset=".335" stop-color="#f4b60a"/><stop offset=".404" stop-color="#d7b524"/><stop offset=".493" stop-color="#a8b54e"/><stop offset=".601" stop-color="#66b488"/><stop offset=".722" stop-color="#14b2d1"/><stop offset=".75" stop-color="#00b2e3"/><stop offset="1" stop-color="#002856"/></linearGradient><path d="M141.675 101.81c-5.074-8.837-12.878-15.793-22.04-20.254L82.47 63.454c-23.763-11.7-41.782-16.848-43.186-28.081-1.132-9.059 2.737-12.882 2.737-12.882s-9.01 5.051-15.996 13.479l-.684.846s-.502.657-1.017 1.354c-.708.959-1.333 1.986-1.769 3.095-.669 1.7-1.075 3.763-.765 6.108 1.06 8.012 9.631 15.843 25.474 23.274 32.02 15.02 62.376 29.159 73.941 34.54 5.465 2.543 10.2 5.903 14.075 9.988 5.47 5.765 10.346 14.103 5.027 22.671.342-.456.68-.918 1.006-1.392 3.259-4.731 5.636-10.301 5.636-16.484.002-6.756-2.28-12.946-5.274-18.16z" fill="url(#SVGID_1_)"/></svg>