<svg xmlns="http://www.w3.org/2000/svg" style="isolation:isolate" viewBox="1077 602 908.187 171.263" width="1210.916" height="228.351"><path d="M1141.481 643.184a7.87 7.87 0 004.505 7.105c21.505 10.21 37.367 15.393 38.681 25.904 1.132 9.059-2.737 12.882-2.737 12.882s24.032-13.467 24.032-33.124c0-6.757-2.281-12.947-5.275-18.161-5.074-8.837-12.878-15.793-22.04-20.254l-31-15.098c-2.849-1.387-6.166.687-6.166 3.856v36.89zM1195.058 742.108c1.449-1.195 2.766-2.559 3.794-4.131 3.502-5.359 4.509-13.064-4.729-22.801-3.854-4.063-8.566-7.406-14.004-9.937a28247.846 28247.846 0 01-73.942-34.54c-15.923-7.469-24.538-15.361-25.607-23.458-.327-2.477.135-4.638.861-6.406l-.002-.001c-2.622 4.308-4.428 9.232-4.428 14.621 0 6.757 2.281 12.947 5.275 18.161 3.548 6.18 8.435 11.436 14.183 15.566-6.972 5.011-19.459 15.962-19.459 30.133 0 6.674 2.225 12.794 5.165 17.969 5.071 8.924 12.917 15.951 22.145 20.445l31.004 15.096c2.849 1.387 6.166-.687 6.166-3.856v-36.887a7.87 7.87 0 00-4.504-7.105c-21.505-10.21-37.367-15.393-38.681-25.904-.446-3.567-.113-6.311.451-8.34a54.274 54.274 0 005.57 3.138l37.165 18.096v.005c23.763 11.7 41.782 16.849 43.186 28.081 1.132 9.059-2.737 12.882-2.737 12.882l13.128-10.827z" fill="#2D2D2B"/><linearGradient id="a" x1="0" y1=".5" x2="1" y2=".5" gradientTransform="matrix(125.265 0 0 115.355 1080.695 622.331)" gradientUnits="userSpaceOnUse"><stop offset="1.77%" stop-color="#f32735"/><stop offset="29.64%" stop-color="#ffb600"/><stop offset="33.54%" stop-color="#f4b60a"/><stop offset="40.38%" stop-color="#d7b524"/><stop offset="49.33%" stop-color="#a8b54e"/><stop offset="60.07%" stop-color="#66b488"/><stop offset="72.18%" stop-color="#14b2d1"/><stop offset="75%" stop-color="#00b2e3"/><stop offset="100%" stop-color="#002856"/></linearGradient><path d="M1200.686 701.65c-5.074-8.837-12.878-15.793-22.04-20.254l-37.165-18.102c-23.763-11.7-41.782-16.848-43.186-28.081-1.132-9.059 2.737-12.882 2.737-12.882s-9.01 5.051-15.996 13.479l-.684.846s-.502.657-1.017 1.354c-.708.959-1.333 1.986-1.769 3.095-.669 1.7-1.075 3.763-.765 6.108 1.06 8.012 9.631 15.843 25.474 23.274 32.02 15.02 62.376 29.159 73.941 34.54 5.465 2.543 10.2 5.903 14.075 9.988 5.47 5.765 10.346 14.103 5.027 22.671.342-.456.68-.918 1.006-1.392 3.259-4.731 5.636-10.301 5.636-16.484.001-6.756-2.28-12.946-5.274-18.16z" fill="url(#a)"/><g fill="#2D2D2B"><path d="M1774.955 732.622h14.297v15.313a17.135 17.135 0 01-3.186 2.329 22.437 22.437 0 01-7.55 2.651c-1.338.214-2.65.321-3.935.321-2.82 0-5.328-.455-7.523-1.365-2.195-.91-4.052-2.222-5.569-3.936-1.517-1.713-2.668-3.81-3.454-6.291-.785-2.481-1.178-5.292-1.178-8.434 0-3.212.428-6.068 1.285-8.567.857-2.498 2.044-4.605 3.561-6.318a14.955 14.955 0 015.435-3.909c2.106-.891 4.408-1.338 6.907-1.338 2.142 0 4.033.262 5.676.786 1.641.524 3.043 1.274 4.203 2.249a12.425 12.425 0 012.864 3.471c.75 1.338 1.321 2.83 1.714 4.471l-4.766.803a14.444 14.444 0 00-1.151-3.052 8.154 8.154 0 00-1.847-2.383c-.75-.66-1.669-1.169-2.758-1.526s-2.401-.536-3.935-.536c-2 0-3.748.383-5.248 1.15a10.374 10.374 0 00-3.748 3.234c-.999 1.391-1.758 3.056-2.276 4.998-.518 1.943-.777 4.09-.777 6.442 0 2.352.25 4.499.75 6.441.499 1.942 1.276 3.608 2.329 4.998a10.548 10.548 0 003.935 3.207c1.57.748 3.427 1.123 5.569 1.123 1.927 0 3.739-.232 5.435-.697a13.747 13.747 0 004.578-2.195v-9.156h-9.638v-4.284h.001zM1808.528 714.042h12.529c2.855 0 5.194.32 7.015.963 1.82.643 3.257 1.473 4.31 2.491 1.053 1.017 1.775 2.168 2.169 3.454.392 1.284.589 2.588.589 3.908 0 2.428-.509 4.498-1.526 6.212-1.018 1.713-2.687 3.052-5.006 4.015l8.032 17.188h-5.516l-7.228-16.01c-.465.072-.964.116-1.5.134a40.89 40.89 0 01-1.446.027h-7.55v15.849h-4.872v-38.231zm13.037 18.099c1.718 0 3.133-.169 4.243-.507 1.111-.337 1.988-.818 2.632-1.441a4.97 4.97 0 001.343-2.266c.251-.889.377-1.885.377-2.988 0-1.066-.144-2.008-.43-2.827-.286-.817-.779-1.519-1.477-2.106-.698-.587-1.639-1.031-2.82-1.334-1.182-.302-2.686-.453-4.512-.453h-7.521v13.922h8.165zM1870.105 753.237c-2.606 0-4.989-.438-7.149-1.312a15.16 15.16 0 01-5.568-3.855c-1.554-1.695-2.758-3.793-3.615-6.292-.857-2.498-1.285-5.354-1.285-8.567 0-3.212.437-6.068 1.312-8.567.874-2.498 2.088-4.605 3.641-6.318a15.29 15.29 0 015.569-3.909c2.159-.891 4.524-1.338 7.095-1.338 2.605 0 4.988.438 7.149 1.311a14.969 14.969 0 015.542 3.855c1.534 1.696 2.73 3.784 3.587 6.265.857 2.482 1.285 5.329 1.285 8.541 0 3.212-.42 6.077-1.258 8.594-.839 2.517-2.027 4.631-3.561 6.345a15.058 15.058 0 01-5.542 3.909c-2.16.891-4.561 1.338-7.202 1.338zm0-4.283c2.034 0 3.828-.375 5.381-1.125a10.506 10.506 0 003.882-3.185c1.035-1.374 1.821-3.034 2.356-4.979.536-1.946.803-4.114.803-6.506 0-2.356-.267-4.506-.803-6.453-.536-1.945-1.33-3.614-2.383-5.006a10.701 10.701 0 00-3.882-3.212c-1.536-.75-3.32-1.124-5.355-1.124-2.071 0-3.882.374-5.435 1.124a10.643 10.643 0 00-3.909 3.212c-1.053 1.392-1.839 3.062-2.356 5.006-.518 1.947-.777 4.096-.777 6.453 0 2.392.259 4.56.777 6.506.517 1.946 1.293 3.606 2.329 4.979a10.491 10.491 0 003.881 3.185c1.555.749 3.384 1.125 5.491 1.125zM1906.355 714.042h4.979v23.078c0 3.962.736 6.926 2.21 8.889 1.473 1.963 3.912 2.945 7.321 2.945 3.443 0 5.874-.991 7.294-2.972 1.42-1.981 2.13-4.935 2.13-8.862v-23.078h4.979v23.078c0 2.857-.331 5.292-.99 7.309-.661 2.017-1.607 3.686-2.838 5.006-1.231 1.322-2.749 2.285-4.552 2.891-1.802.607-3.828.911-6.077.911-4.605 0-8.166-1.285-10.682-3.855-2.517-2.571-3.775-6.729-3.775-12.476v-22.864h.001zM1955.294 714.042h12.797c2.82 0 5.149.304 6.988.91 1.839.607 3.284 1.428 4.338 2.463a8.359 8.359 0 012.195 3.615c.41 1.375.616 2.83.616 4.364 0 1.607-.214 3.142-.643 4.605a9.17 9.17 0 01-2.248 3.855c-1.071 1.107-2.517 1.981-4.338 2.624-1.82.643-4.122.964-6.907.964h-7.924v14.832h-4.872v-38.232h-.002zm12.719 19.223c1.85 0 3.38-.179 4.59-.536 1.209-.357 2.153-.875 2.83-1.553a5.505 5.505 0 001.414-2.437c.267-.945.401-2.008.401-3.186 0-1.213-.143-2.284-.428-3.212a4.825 4.825 0 00-1.494-2.302c-.712-.606-1.664-1.062-2.856-1.365-1.192-.303-2.695-.455-4.51-.455h-7.793v15.046h7.846z"/></g><g fill="#2D2D2B"><path d="M1267.413 667.529c1.311 0 2.156.75 2.156 2.063v.563c0 1.97.845 2.906 3 2.906h25.502c3.095 0 4.031-.936 4.031-3.281v-4.22c0-2.343-.936-3.281-4.031-3.281h-30.378c-11.065 0-15.657-4.5-15.657-15.001v-9.751c0-10.501 4.592-15.001 15.657-15.001h36.753c11.437 0 15.282 3.656 15.282 14.721v3.843c0 1.313-.75 2.063-2.156 2.063h-14.065c-1.406 0-2.156-.75-2.156-2.063v-.563c0-1.97-.845-2.906-3.095-2.906h-23.252c-3.092 0-4.031.936-4.031 3.281v3.656c0 2.345.939 3.282 4.031 3.282h30.379c11.065 0 15.66 4.5 15.66 15.001v10.313c0 10.501-4.595 15.001-15.66 15.001h-38.909c-11.532 0-15.282-3.656-15.282-14.721v-3.843c0-1.313.75-2.063 2.156-2.063h14.065v.001zM1350.186 637.621h-22.41c-1.406 0-2.156-.75-2.156-2.064v-10.969c0-1.313.75-2.063 2.156-2.063h63.756c1.409 0 2.159.75 2.159 2.063v10.969c0 1.314-.75 2.064-2.159 2.064h-22.407v48.472c0 1.313-.845 2.063-2.156 2.063h-14.626c-1.406 0-2.156-.75-2.156-2.063v-48.472h-.001zM1439.996 677h-31.597l-3.564 9.187c-.467 1.314-1.406 1.97-3 1.97h-15.468c-1.22 0-1.784-.938-1.314-2.156l25.783-61.505c.47-1.314 1.409-1.97 3.095-1.97h21.377c1.595 0 2.439.656 3 1.97l25.783 61.505c.47 1.218-.092 2.156-1.217 2.156h-16.315c-1.686 0-2.531-.656-3-1.97l-3.563-9.187zm-25.877-14.721h20.063l-10.031-25.877-10.032 25.877zM1498.203 622.525c1.689 0 2.72.656 3.095 1.97l13.312 43.879 13.315-43.879c.375-1.314 1.406-1.97 3.095-1.97h26.344c1.409 0 2.159.75 2.159 2.063v61.505c0 1.313-.75 2.063-2.159 2.063h-14.626c-1.406 0-2.156-.75-2.156-2.063v-47.911l-15.282 48.004c-.375 1.314-1.406 1.97-3.095 1.97h-16.032c-1.689 0-2.625-.656-3-1.97l-15.471-48.379v48.286c0 1.313-.845 2.063-2.156 2.063h-13.126c-1.406 0-2.156-.75-2.156-2.063v-61.505c0-1.313.75-2.063 2.156-2.063h25.783zM1629.349 655.059c7.97 1.125 11.346 5.625 11.346 14.626v3.47c0 10.501-4.595 15.001-15.657 15.001h-51.568c-1.406 0-2.156-.75-2.156-2.063v-61.505c0-1.313.75-2.063 2.156-2.063h50.629c10.97 0 15.66 4.5 15.66 15.001v2.906c-.001 8.626-3.19 13.221-10.41 14.627zm-39.095-7.312h25.594c3.659 0 4.97-1.22 4.97-4.595v-.938c0-3.375-1.311-4.593-4.97-4.593h-25.594v10.126zm0 14.626v10.687h26.438c3.75 0 5.064-1.218 5.064-4.593v-1.5c0-3.375-1.314-4.593-5.064-4.593h-26.438v-.001zM1718.687 637.527v13.032c0 10.501-4.595 15.94-15.657 15.94h-.284l18.002 19.595c.75.843.283 2.063-.75 2.063h-18.468c-1.784 0-2.534-.375-3.564-1.595l-16.126-19.127h-13.127v18.659c0 1.313-.845 2.063-2.25 2.063h-14.532c-1.406 0-2.156-.75-2.156-2.063v-61.506c0-1.313.75-2.063 2.156-2.063h51.099c11.062 0 15.657 4.501 15.657 15.002zm-49.974 14.814h24.752c5.439 0 6.281-.843 6.281-5.343v-4.032c0-4.5-.842-5.343-6.281-5.343h-24.752v14.718zM1747.83 686.093c0 1.313-.845 2.063-2.25 2.063h-14.532c-1.406 0-2.156-.75-2.156-2.063v-61.505c0-1.313.75-2.063 2.156-2.063h14.532c1.406 0 2.25.75 2.25 2.063v61.505zM1808.39 622.525c13.035 0 20.721 7.22 20.721 19.782v26.066c0 12.562-7.687 19.782-20.721 19.782h-46.504c-1.406 0-2.156-.75-2.156-2.063v-61.504c0-1.313.75-2.063 2.156-2.063h46.504zm-29.719 50.535h22.877c6.281 0 8.626-1.875 8.626-7.219V644.84c0-5.25-2.345-7.219-8.626-7.219h-22.877v35.439zM1892.102 644.558c-1.409 0-2.159-.75-2.159-2.061v-1.97c0-1.97-.936-2.906-3.092-2.906h-22.316c-6.095 0-7.22.936-7.22 6.001v23.438c0 5.064 1.125 6.001 7.22 6.001h22.316c2.156 0 3.092-.936 3.092-2.906v-5.531h-13.501c-1.406 0-2.156-.75-2.156-2.064v-10.312c0-1.314.75-2.064 2.156-2.064h29.722c1.406 0 2.156.75 2.156 2.064v21.188c0 11.065-3.842 14.721-15.376 14.721h-38.814c-10.876 0-15.751-4.5-15.751-15.001v-35.629c0-10.501 4.875-15.001 15.751-15.001h38.814c11.534 0 15.376 3.656 15.376 14.721v5.25c0 1.311-.75 2.061-2.156 2.061h-14.062zM1983.028 622.525c1.409 0 2.159.75 2.159 2.063v10.969c0 1.314-.75 2.064-2.159 2.064h-44.815v10.219h37.503c1.311 0 2.156.75 2.156 2.063v10.313c0 1.313-.845 2.063-2.156 2.063h-37.503v10.781h44.815c1.409 0 2.159.75 2.159 2.064v10.969c0 1.313-.75 2.063-2.159 2.063h-61.597c-1.406 0-2.156-.75-2.156-2.063v-61.505c0-1.313.75-2.063 2.156-2.063h61.597z"/></g></svg>