<svg xmlns="http://www.w3.org/2000/svg" style="isolation:isolate" viewBox="1077 602 908.187 171.263" width="1210.916" height="228.351"><path d="M1141.481 643.184a7.87 7.87 0 004.505 7.105c21.505 10.21 37.367 15.393 38.681 25.904 1.132 9.059-2.737 12.882-2.737 12.882s24.032-13.467 24.032-33.124c0-6.757-2.281-12.947-5.275-18.161-5.074-8.837-12.878-15.793-22.04-20.254l-31-15.098c-2.849-1.387-6.166.687-6.166 3.856v36.89z" fill="#007F6E"/><path d="M1195.057 742.108c1.449-1.195 2.766-2.559 3.794-4.131 3.502-5.359 4.509-13.064-4.729-22.801-3.854-4.063-8.566-7.406-14.004-9.937a28247.846 28247.846 0 01-73.942-34.54c-15.922-7.469-24.537-15.361-25.606-23.458-.327-2.477.135-4.638.861-6.406l-.002-.001c-2.622 4.308-4.428 9.232-4.428 14.621 0 6.757 2.281 12.947 5.275 18.161 3.548 6.18 8.435 11.436 14.183 15.566-6.972 5.011-19.459 15.962-19.459 30.133 0 6.674 2.225 12.794 5.165 17.969 5.071 8.924 12.917 15.951 22.145 20.445l31.004 15.096c2.849 1.387 6.166-.687 6.166-3.856v-36.887a7.87 7.87 0 00-4.504-7.105c-21.505-10.21-37.367-15.393-38.681-25.904-.446-3.567-.113-6.311.451-8.34a54.274 54.274 0 005.57 3.138l37.165 18.096v.005c23.763 11.7 41.782 16.849 43.186 28.081 1.132 9.059-2.737 12.882-2.737 12.882l13.127-10.827z" fill="#00AF9A"/><path d="M1200.686 701.65c-5.074-8.837-12.878-15.793-22.04-20.254l-37.165-18.102c-23.763-11.7-41.782-16.848-43.186-28.081-1.132-9.059 2.737-12.882 2.737-12.882s-9.01 5.051-15.996 13.479l-.684.846s-.502.657-1.017 1.354c-.708.959-1.333 1.986-1.769 3.095-.669 1.7-1.075 3.763-.765 6.108 1.06 8.012 9.631 15.843 25.474 23.274 32.02 15.02 62.376 29.159 73.941 34.54 5.465 2.543 10.2 5.903 14.075 9.988 5.47 5.765 10.346 14.103 5.027 22.671.342-.456.68-.918 1.006-1.392 3.259-4.731 5.636-10.301 5.636-16.484.001-6.756-2.28-12.946-5.274-18.16z" fill="#007F6E"/><g><path d="M1480.888 715.306h4.598l9.277 24.361 9.439-24.361h4.436v28.798h-3.428v-22.708l-9.035 22.708h-3.025l-8.873-22.628v22.628h-3.388v-28.798h-.001zM1524.045 715.306h18.674v3.227h-14.923v9.075h14.117v3.307h-14.117v9.963h15.69l-.605 3.227h-18.836v-28.799zM1557.039 715.306h10.084c2.097 0 3.973.289 5.626.867 1.654.578 3.051 1.459 4.195 2.642 1.142 1.184 2.023 2.662 2.642 4.437.618 1.774.928 3.859.928 6.251 0 2.421-.33 4.545-.989 6.373-.659 1.829-1.607 3.348-2.844 4.558-1.237 1.21-2.743 2.124-4.517 2.743-1.775.619-3.765.928-5.97.928h-9.155v-28.799zm9.343 25.572c3.567 0 6.169-.999 7.805-2.999 1.636-2 2.454-4.758 2.454-8.274 0-1.745-.182-3.301-.543-4.67-.363-1.368-.926-2.53-1.69-3.482-.764-.953-1.75-1.678-2.957-2.175-1.208-.497-2.643-.745-4.305-.745h-6.356v22.345h5.592zM1594.872 715.306h3.751v28.798h-3.751v-28.798zM1637.626 734.626a13.382 13.382 0 01-1.091 4.054 10.177 10.177 0 01-2.302 3.247c-.97.914-2.149 1.627-3.536 2.138-1.387.51-2.996.766-4.828.766-1.993 0-3.784-.337-5.373-1.008a10.74 10.74 0 01-4.04-2.945c-1.104-1.291-1.959-2.87-2.565-4.739-.606-1.868-.909-3.999-.909-6.393 0-2.42.323-4.571.969-6.453.647-1.882 1.548-3.469 2.707-4.759a11.533 11.533 0 014.101-2.945c1.576-.672 3.279-1.008 5.111-1.008 1.777 0 3.312.229 4.605.685 1.293.457 2.39 1.103 3.292 1.936a9.702 9.702 0 012.182 2.985c.552 1.156.976 2.434 1.273 3.832l-3.63.605a14.798 14.798 0 00-.95-2.844 7.177 7.177 0 00-1.496-2.157 6.047 6.047 0 00-2.184-1.351c-.849-.309-1.88-.464-3.093-.464-1.429 0-2.703.289-3.821.867a8.14 8.14 0 00-2.83 2.42c-.768 1.036-1.354 2.286-1.759 3.751-.405 1.466-.607 3.086-.607 4.861 0 1.774.202 3.395.607 4.86.404 1.466.99 2.723 1.759 3.771a7.848 7.848 0 002.83 2.42c1.119.565 2.406.848 3.861.848 1.321 0 2.446-.168 3.376-.504.93-.336 1.698-.813 2.304-1.432a6.786 6.786 0 001.436-2.218c.35-.86.606-1.801.768-2.823h3.833v-.003zM1659.528 715.306h3.912l11.173 28.798h-4.034l-3.025-8.026h-12.342l-3.025 8.026h-3.872l11.213-28.798zm6.897 17.545l-5.082-13.351-5.002 13.351h10.084zM1687.278 715.306h3.751v25.491h14.923l-.564 3.307h-18.11v-28.798zM1738.301 735.876c.323 2.017 1.122 3.476 2.399 4.377 1.277.901 3.18 1.351 5.708 1.351 1.264 0 2.32-.14 3.166-.423.847-.281 1.526-.658 2.037-1.128.511-.47.874-1.02 1.089-1.651a6.136 6.136 0 00.323-1.993c0-.564-.067-1.107-.201-1.631a3.38 3.38 0 00-.786-1.429c-.39-.43-.929-.806-1.614-1.128-.686-.322-1.567-.577-2.642-.766l-3.63-.644c-1.426-.241-2.69-.564-3.792-.966-1.103-.403-2.037-.919-2.804-1.551a5.96 5.96 0 01-1.734-2.356c-.39-.94-.584-2.081-.584-3.424 0-1.315.276-2.47.827-3.463a7.493 7.493 0 012.239-2.497c.94-.672 2.057-1.168 3.347-1.49 1.291-.322 2.689-.483 4.196-.483 1.908 0 3.502.208 4.78.625 1.276.417 2.319.975 3.126 1.674.807.699 1.418 1.499 1.835 2.4.417.901.732 1.822.948 2.763l-3.469.685a10.167 10.167 0 00-.827-2.157 4.758 4.758 0 00-1.33-1.573c-.551-.417-1.23-.733-2.037-.948-.807-.215-1.789-.323-2.945-.323-1.318 0-2.419.121-3.307.362-.887.241-1.6.57-2.137.986-.539.415-.921.912-1.15 1.489a4.915 4.915 0 00-.343 1.83c0 .698.088 1.307.263 1.83.174.523.47.973.887 1.348.417.375.961.697 1.634.966.671.269 1.506.496 2.501.684l4.033.727c2.985.565 5.176 1.501 6.574 2.807 1.399 1.306 2.098 3.225 2.098 5.755a7.963 7.963 0 01-.667 3.251 7.396 7.396 0 01-1.98 2.646c-.875.753-1.973 1.346-3.293 1.777-1.32.431-2.869.646-4.647.646-1.696 0-3.239-.169-4.626-.506-1.388-.338-2.593-.871-3.616-1.6a8.2 8.2 0 01-2.465-2.796c-.62-1.135-.996-2.485-1.131-4.052h3.747v-.001zM1771.173 715.306h18.674v3.227h-14.923v9.075h14.116v3.307h-14.116v9.963h15.69l-.605 3.227h-18.836v-28.799zM1804.165 715.306h9.438c2.151 0 3.912.241 5.284.726 1.371.484 2.454 1.109 3.246 1.876.793.766 1.337 1.633 1.634 2.602.295.968.443 1.95.443 2.944 0 1.829-.384 3.388-1.15 4.679-.766 1.29-2.024 2.299-3.771 3.025l6.051 12.948h-4.155l-5.445-12.06a9.435 9.435 0 01-1.13.101c-.404.014-.766.02-1.089.02h-5.687v11.939h-3.671v-28.8h.002zm9.821 13.633c1.295 0 2.361-.127 3.197-.382.836-.254 1.497-.616 1.982-1.085a3.737 3.737 0 001.011-1.707c.189-.67.285-1.42.285-2.251 0-.803-.109-1.513-.324-2.13a3.604 3.604 0 00-1.113-1.586c-.526-.442-1.234-.777-2.125-1.005-.891-.227-2.023-.341-3.399-.341h-5.664v10.487h6.15zM1835.626 715.306h4.194l8.753 23.999 8.913-23.999h3.994l-11.052 28.798h-3.751l-11.051-28.798zM1874.185 715.306h3.751v28.798h-3.751v-28.798zM1916.94 734.626a13.41 13.41 0 01-1.091 4.054 10.193 10.193 0 01-2.302 3.247c-.971.914-2.149 1.627-3.536 2.138-1.386.51-2.996.766-4.827.766-1.994 0-3.784-.337-5.373-1.008a10.752 10.752 0 01-4.041-2.945c-1.104-1.291-1.959-2.87-2.565-4.739-.606-1.868-.909-3.999-.909-6.393 0-2.42.323-4.571.969-6.453.647-1.882 1.548-3.469 2.706-4.759a11.545 11.545 0 014.102-2.945c1.576-.672 3.279-1.008 5.11-1.008 1.778 0 3.312.229 4.606.685 1.292.457 2.39 1.103 3.292 1.936a9.719 9.719 0 012.182 2.985c.553 1.156.977 2.434 1.273 3.832l-3.63.605a14.73 14.73 0 00-.95-2.844 7.141 7.141 0 00-1.496-2.157 6.047 6.047 0 00-2.184-1.351c-.849-.309-1.88-.464-3.093-.464-1.428 0-2.703.289-3.821.867a8.14 8.14 0 00-2.83 2.42c-.769 1.036-1.354 2.286-1.759 3.751-.405 1.466-.607 3.086-.607 4.861 0 1.774.202 3.395.607 4.86.404 1.466.99 2.723 1.759 3.771a7.84 7.84 0 002.83 2.42c1.118.565 2.405.848 3.861.848 1.32 0 2.446-.168 3.376-.504.93-.336 1.698-.813 2.304-1.432a6.786 6.786 0 001.436-2.218c.351-.86.606-1.801.769-2.823h3.832v-.003zM1930.975 715.306h18.674v3.227h-14.923v9.075h14.118v3.307h-14.118v9.963h15.691l-.606 3.227h-18.836v-28.799zM1965.582 735.876c.323 2.017 1.123 3.476 2.4 4.377 1.277.901 3.179 1.351 5.708 1.351 1.263 0 2.319-.14 3.166-.423.846-.281 1.525-.658 2.037-1.128.51-.47.873-1.02 1.089-1.651a6.136 6.136 0 00.323-1.993c0-.564-.067-1.107-.202-1.631-.135-.523-.396-1-.786-1.429-.39-.43-.928-.806-1.614-1.128-.685-.322-1.567-.577-2.642-.766l-3.63-.644c-1.426-.241-2.689-.564-3.792-.966-1.103-.403-2.037-.919-2.803-1.551a5.941 5.941 0 01-1.734-2.356c-.39-.94-.584-2.081-.584-3.424 0-1.315.274-2.47.826-3.463a7.514 7.514 0 012.239-2.497c.942-.672 2.057-1.168 3.348-1.49 1.291-.322 2.689-.483 4.194-.483 1.91 0 3.503.208 4.78.625 1.277.417 2.319.975 3.126 1.674.807.699 1.418 1.499 1.836 2.4.415.901.732 1.822.948 2.763l-3.469.685a10.276 10.276 0 00-.827-2.157 4.74 4.74 0 00-1.332-1.573c-.551-.417-1.23-.733-2.037-.948-.807-.215-1.789-.323-2.944-.323-1.318 0-2.421.121-3.307.362-.888.241-1.601.57-2.138.986-.537.415-.921.912-1.149 1.489a4.915 4.915 0 00-.343 1.83c0 .698.086 1.307.262 1.83.175.523.47.973.888 1.348.415.375.961.697 1.633.966s1.506.496 2.501.684l4.034.727c2.985.565 5.175 1.501 6.574 2.807 1.398 1.306 2.098 3.225 2.098 5.755a7.963 7.963 0 01-.667 3.251 7.399 7.399 0 01-1.981 2.646c-.874.753-1.972 1.346-3.292 1.777-1.32.431-2.869.646-4.647.646-1.698 0-3.24-.169-4.626-.506-1.388-.338-2.593-.871-3.617-1.6a8.22 8.22 0 01-2.465-2.796c-.619-1.135-.996-2.485-1.131-4.052h3.749v-.001z" fill="#00AF9A"/></g><g fill="#2D2D2B"><path d="M1267.413 667.424c1.311 0 2.156.75 2.156 2.063v.563c0 1.97.845 2.906 3 2.906h25.502c3.095 0 4.031-.936 4.031-3.281v-4.22c0-2.343-.936-3.281-4.031-3.281h-30.378c-11.065 0-15.657-4.5-15.657-15.001v-9.751c0-10.501 4.592-15.001 15.657-15.001h36.753c11.437 0 15.282 3.656 15.282 14.721v3.843c0 1.313-.75 2.063-2.156 2.063h-14.065c-1.406 0-2.156-.75-2.156-2.063v-.563c0-1.97-.845-2.906-3.095-2.906h-23.252c-3.092 0-4.031.936-4.031 3.281v3.656c0 2.345.939 3.282 4.031 3.282h30.379c11.065 0 15.66 4.5 15.66 15.001v10.314c0 10.501-4.595 15.001-15.66 15.001h-38.909c-11.532 0-15.282-3.656-15.282-14.721v-3.843c0-1.313.75-2.063 2.156-2.063h14.065zM1350.186 637.516h-22.41c-1.406 0-2.156-.75-2.156-2.064v-10.969c0-1.313.75-2.063 2.156-2.063h63.756c1.409 0 2.159.75 2.159 2.063v10.969c0 1.314-.75 2.064-2.159 2.064h-22.407v48.472c0 1.313-.845 2.063-2.156 2.063h-14.626c-1.406 0-2.156-.75-2.156-2.063v-48.472h-.001zM1439.996 676.895h-31.597l-3.564 9.187c-.467 1.314-1.406 1.97-3 1.97h-15.468c-1.22 0-1.784-.938-1.314-2.156l25.783-61.505c.47-1.314 1.409-1.97 3.095-1.97h21.377c1.595 0 2.439.656 3 1.97l25.783 61.505c.47 1.218-.092 2.156-1.217 2.156h-16.315c-1.686 0-2.531-.656-3-1.97l-3.563-9.187zm-25.877-14.721h20.063l-10.031-25.877-10.032 25.877zM1498.203 622.421c1.689 0 2.72.656 3.095 1.97l13.312 43.879 13.315-43.879c.375-1.314 1.406-1.97 3.095-1.97h26.344c1.409 0 2.159.75 2.159 2.063v61.505c0 1.313-.75 2.063-2.159 2.063h-14.626c-1.406 0-2.156-.75-2.156-2.063v-47.912l-15.282 48.004c-.375 1.314-1.406 1.97-3.095 1.97h-16.032c-1.689 0-2.625-.656-3-1.97l-15.471-48.379v48.286c0 1.313-.845 2.063-2.156 2.063h-13.126c-1.406 0-2.156-.75-2.156-2.063v-61.505c0-1.313.75-2.063 2.156-2.063h25.783v.001zM1629.349 654.954c7.97 1.125 11.345 5.625 11.345 14.626v3.47c0 10.501-4.595 15.001-15.657 15.001h-51.568c-1.406 0-2.156-.75-2.156-2.063v-61.505c0-1.313.75-2.063 2.156-2.063h50.629c10.97 0 15.66 4.5 15.66 15.001v2.906c.001 8.626-3.189 13.221-10.409 14.627zm-39.095-7.312h25.594c3.659 0 4.97-1.22 4.97-4.595v-.937c0-3.375-1.311-4.593-4.97-4.593h-25.594v10.125zm0 14.627v10.687h26.438c3.75 0 5.064-1.218 5.064-4.593v-1.5c0-3.375-1.314-4.593-5.064-4.593h-26.438v-.001zM1718.687 637.422v13.032c0 10.501-4.595 15.94-15.657 15.94h-.284l18.002 19.595c.75.843.283 2.063-.75 2.063h-18.468c-1.784 0-2.534-.375-3.564-1.595l-16.127-19.127h-13.126v18.659c0 1.313-.845 2.063-2.25 2.063h-14.532c-1.406 0-2.156-.75-2.156-2.063v-61.506c0-1.313.75-2.063 2.156-2.063h51.099c11.062.001 15.657 4.501 15.657 15.002zm-49.974 14.814h24.752c5.439 0 6.281-.843 6.281-5.343v-4.033c0-4.5-.842-5.343-6.281-5.343h-24.752v14.719zM1747.83 685.989c0 1.313-.845 2.063-2.25 2.063h-14.532c-1.406 0-2.156-.75-2.156-2.063v-61.506c0-1.313.75-2.063 2.156-2.063h14.532c1.406 0 2.25.75 2.25 2.063v61.506zM1808.39 622.421c13.035 0 20.721 7.22 20.721 19.782v26.066c0 12.562-7.687 19.782-20.721 19.782h-46.504c-1.406 0-2.156-.75-2.156-2.063v-61.505c0-1.313.75-2.063 2.156-2.063h46.504v.001zm-29.719 50.534h22.877c6.281 0 8.626-1.875 8.626-7.219v-21.001c0-5.25-2.345-7.219-8.626-7.219h-22.877v35.439zM1892.102 644.453c-1.409 0-2.159-.75-2.159-2.061v-1.97c0-1.97-.936-2.906-3.092-2.906h-22.316c-6.095 0-7.22.936-7.22 6.001v23.438c0 5.064 1.125 6.001 7.22 6.001h22.316c2.156 0 3.092-.936 3.092-2.906v-5.531h-13.501c-1.406 0-2.156-.75-2.156-2.064v-10.312c0-1.314.75-2.064 2.156-2.064h29.722c1.406 0 2.156.75 2.156 2.064v21.188c0 11.065-3.842 14.721-15.376 14.721h-38.814c-10.876 0-15.751-4.5-15.751-15.001v-35.629c0-10.501 4.875-15.001 15.751-15.001h38.814c11.534 0 15.376 3.656 15.376 14.721v5.25c0 1.311-.75 2.061-2.156 2.061h-14.062zM1983.028 622.421c1.409 0 2.159.75 2.159 2.063v10.969c0 1.314-.75 2.064-2.159 2.064h-44.815v10.219h37.503c1.311 0 2.156.75 2.156 2.063v10.313c0 1.313-.845 2.063-2.156 2.063h-37.503v10.781h44.815c1.409 0 2.159.75 2.159 2.064v10.969c0 1.313-.75 2.063-2.159 2.063h-61.597c-1.406 0-2.156-.75-2.156-2.063v-61.506c0-1.313.75-2.063 2.156-2.063h61.597v.001z"/></g></svg>