<svg width="914" height="176" fill="none" xmlns="http://www.w3.org/2000/svg"><path d="M67.297 43.344c0 3.039 1.758 5.8 4.504 7.101 21.508 10.211 37.371 15.395 38.683 25.907 1.129 9.058-2.738 12.882-2.738 12.882s24.031-13.468 24.031-33.125c0-6.757-2.281-12.949-5.273-18.16-5.074-8.836-12.879-15.793-22.039-20.254l-31-15.097c-2.852-1.387-6.168.683-6.168 3.851" fill="#3960A6"/><path d="M120.875 142.266c1.449-1.196 2.766-2.559 3.793-4.129 3.504-5.36 4.508-13.067-4.73-22.805-3.852-4.062-8.567-7.406-14-9.934a28736.204 28736.204 0 01-73.946-34.542C16.07 63.39 7.457 55.496 6.387 47.398c-.324-2.476.133-4.636.86-6.406-.009 0 .007.004 0 0-2.622 4.309-4.43 9.235-4.43 14.621 0 6.758 2.28 12.946 5.277 18.16 3.547 6.18 8.433 11.438 14.183 15.567-6.972 5.012-19.46 15.961-19.46 30.133 0 6.672 2.226 12.793 5.163 17.968 5.075 8.926 12.918 15.95 22.149 20.446l31.004 15.093c2.847 1.391 6.164-.687 6.164-3.855v-36.883a7.862 7.862 0 00-4.504-7.105c-21.504-10.211-37.367-15.395-38.684-25.906-.441-3.567-.109-6.31.453-8.34a54.016 54.016 0 005.57 3.136l37.165 18.098v.004c23.766 11.703 41.781 16.848 43.187 28.082 1.133 9.059-2.738 12.883-2.738 12.883" fill="#2CD2D6"/><path d="M126.504 101.809c-5.074-8.84-12.879-15.793-22.039-20.254L67.297 63.453C43.535 51.75 25.516 46.605 24.109 35.371c-1.129-9.059 2.739-12.883 2.739-12.883s-9.008 5.051-15.996 13.48l-.684.848s-.5.657-1.016 1.352c-.707.96-1.332 1.988-1.77 3.098-.667 1.699-1.073 3.761-.765 6.105 1.063 8.012 9.633 15.844 25.477 23.273 32.02 15.02 62.375 29.16 73.941 34.544 5.461 2.542 10.199 5.902 14.074 9.984 5.469 5.766 10.344 14.105 5.028 22.672.343-.457.679-.918 1.008-1.391 3.253-4.73 5.632-10.301 5.632-16.484 0-6.758-2.281-12.946-5.273-18.16z" fill="#3960A6"/><path d="M193.23 67.582c1.313 0 2.157.75 2.157 2.063v.562c0 1.973.843 2.906 3 2.906h25.5c3.097 0 4.031-.933 4.031-3.281v-4.219c0-2.343-.934-3.281-4.031-3.281h-30.375c-11.067 0-15.657-4.5-15.657-15v-9.754c0-10.5 4.59-15 15.657-15h36.754c11.433 0 15.281 3.656 15.281 14.723v3.843c0 1.313-.75 2.063-2.156 2.063h-14.067c-1.406 0-2.156-.75-2.156-2.063v-.562c0-1.973-.844-2.906-3.094-2.906h-23.25c-3.094 0-4.031.933-4.031 3.281v3.652c0 2.348.937 3.285 4.031 3.285h30.375c11.067 0 15.66 4.5 15.66 15v10.313c0 10.5-4.593 15.004-15.66 15.004h-38.906c-11.535 0-15.285-3.656-15.285-14.723v-3.844c0-1.312.75-2.062 2.156-2.062M276.004 37.676h-22.41c-1.406 0-2.156-.75-2.156-2.067V24.641c0-1.313.75-2.063 2.156-2.063h63.754c1.41 0 2.16.75 2.16 2.063v10.968c0 1.317-.75 2.067-2.16 2.067h-22.407v48.472c0 1.313-.843 2.063-2.156 2.063h-14.629c-1.402 0-2.152-.75-2.152-2.063M339.938 62.332h20.058l-10.027-25.879-10.031 25.879zm25.875 14.723h-31.598l-3.563 9.183c-.468 1.317-1.406 1.973-3 1.973h-15.468c-1.219 0-1.786-.938-1.313-2.156l25.781-61.504c.469-1.317 1.411-1.973 3.094-1.973h21.375c1.598 0 2.442.656 3 1.973l25.785 61.504c.469 1.218-.09 2.156-1.215 2.156h-16.316c-1.687 0-2.531-.656-3-1.973M424.02 22.578c1.687 0 2.718.656 3.093 1.973l13.313 43.879 13.316-43.88c.375-1.316 1.406-1.972 3.094-1.972h26.344c1.41 0 2.16.75 2.16 2.063v61.507c0 1.313-.75 2.063-2.16 2.063h-14.625c-1.407 0-2.157-.75-2.157-2.063V38.234l-15.281 48.004c-.375 1.317-1.406 1.973-3.094 1.973h-16.035c-1.687 0-2.625-.656-3-1.973L413.52 37.86v48.29c0 1.312-.844 2.062-2.157 2.062h-13.125c-1.406 0-2.156-.75-2.156-2.063V24.641c0-1.313.75-2.063 2.156-2.063M516.07 62.426v10.687h26.438c3.754 0 5.066-1.219 5.066-4.594v-1.5c0-3.375-1.312-4.593-5.066-4.593H516.07zm0-14.625h25.594c3.66 0 4.973-1.219 4.973-4.594v-.938c0-3.378-1.313-4.593-4.973-4.593H516.07V47.8zm39.098 7.312c7.969 1.125 11.344 5.625 11.344 14.625v3.469c0 10.5-4.594 15.004-15.657 15.004h-51.57c-1.402 0-2.152-.75-2.152-2.063V24.641c0-1.313.75-2.063 2.152-2.063h50.629c10.973 0 15.66 4.5 15.66 15v2.91c0 8.625-3.187 13.219-10.406 14.625zM594.531 52.395h24.75c5.442 0 6.281-.844 6.281-5.344v-4.032c0-4.503-.839-5.343-6.281-5.343h-24.75v14.718zm49.973-14.817v13.035c0 10.5-4.594 15.938-15.656 15.938h-.286l18.004 19.597c.75.844.282 2.063-.75 2.063h-18.468c-1.785 0-2.536-.375-3.567-1.594l-16.125-19.129h-13.125v18.66c0 1.313-.847 2.063-2.25 2.063h-14.535c-1.402 0-2.152-.75-2.152-2.063V24.641c0-1.313.75-2.063 2.152-2.063h51.102c11.062 0 15.656 4.5 15.656 15zM673.648 86.148c0 1.313-.847 2.063-2.25 2.063h-14.535c-1.402 0-2.152-.75-2.152-2.063V24.641c0-1.313.75-2.063 2.152-2.063h14.535c1.403 0 2.25.75 2.25 2.063M704.488 73.113h22.875c6.282 0 8.629-1.875 8.629-7.219v-21c0-5.253-2.347-7.218-8.629-7.218h-22.875v35.437zm29.719-50.535c13.035 0 20.723 7.223 20.723 19.781v26.067c0 12.562-7.688 19.785-20.723 19.785h-46.504c-1.406 0-2.156-.75-2.156-2.063V24.641c0-1.313.75-2.063 2.156-2.063M817.922 44.61c-1.41 0-2.16-.75-2.16-2.06v-1.968c0-1.973-.938-2.906-3.094-2.906h-22.313c-6.097 0-7.222.933-7.222 6v23.437c0 5.063 1.125 6 7.222 6h22.313c2.156 0 3.094-.937 3.094-2.906v-5.531h-13.504c-1.403 0-2.153-.75-2.153-2.063V52.301c0-1.313.75-2.063 2.153-2.063h29.722c1.407 0 2.157.75 2.157 2.063v21.187c0 11.067-3.84 14.723-15.375 14.723h-38.817c-10.875 0-15.75-4.5-15.75-15.004V37.578c0-10.5 4.875-15 15.75-15h38.817c11.535 0 15.375 3.656 15.375 14.723v5.25c0 1.308-.75 2.058-2.157 2.058M908.844 22.578c1.41 0 2.16.75 2.16 2.063v10.968c0 1.317-.75 2.067-2.16 2.067h-44.813v10.218h37.5c1.313 0 2.16.75 2.16 2.063V60.27c0 1.312-.847 2.062-2.16 2.062h-37.5v10.781h44.813c1.41 0 2.16.75 2.16 2.067v10.968c0 1.313-.75 2.063-2.16 2.063h-61.598c-1.402 0-2.152-.75-2.152-2.063V24.641c0-1.313.75-2.063 2.152-2.063" fill="#fff"/><path d="M558.504 129.117c1.293 0 2.355-.125 3.191-.379.836-.254 1.496-.617 1.981-1.086a3.754 3.754 0 001.012-1.703c.187-.668.281-1.418.281-2.246 0-.805-.11-1.512-.324-2.129a3.61 3.61 0 00-1.11-1.582c-.527-.441-1.234-.777-2.121-1.004-.891-.226-2.019-.34-3.394-.34h-5.661v10.469h6.145zm-9.809-13.609h9.426c2.149 0 3.906.238 5.277.722 1.372.485 2.45 1.106 3.243 1.872.793.765 1.336 1.632 1.632 2.597.293.969.442 1.949.442 2.942 0 1.828-.383 3.382-1.149 4.671-.765 1.29-2.019 2.297-3.765 3.02l6.043 12.934h-4.153l-5.433-12.043c-.352.05-.727.086-1.129.097a27.67 27.67 0 01-1.09.024h-5.68v11.922h-3.664M583.176 115.504h18.644v3.223h-14.898v9.062h14.094v3.305h-14.094v9.949h15.668l-.606 3.219h-18.808M639.32 134.797a13.24 13.24 0 01-1.09 4.051 10.152 10.152 0 01-2.296 3.242c-.969.91-2.145 1.625-3.532 2.133-1.386.511-2.992.765-4.82.765-1.988 0-3.777-.336-5.367-1.004a10.774 10.774 0 01-4.035-2.941c-1.102-1.289-1.953-2.867-2.559-4.734-.605-1.864-.91-3.993-.91-6.383 0-2.418.324-4.567.969-6.446.644-1.878 1.547-3.464 2.703-4.753a11.526 11.526 0 014.094-2.942c1.574-.668 3.277-1.004 5.105-1.004 1.773 0 3.309.227 4.598.684 1.293.457 2.386 1.101 3.289 1.933a9.648 9.648 0 012.179 2.981c.551 1.156.973 2.43 1.274 3.824l-3.625.606a14.964 14.964 0 00-.953-2.84c-.391-.844-.887-1.563-1.492-2.153a5.998 5.998 0 00-2.18-1.351c-.852-.309-1.879-.461-3.09-.461-1.426 0-2.699.285-3.816.863a8.109 8.109 0 00-2.825 2.418c-.765 1.035-1.351 2.281-1.757 3.746-.403 1.465-.606 3.082-.606 4.852 0 1.773.203 3.394.606 4.855.406 1.461.992 2.719 1.757 3.766a7.837 7.837 0 002.825 2.418c1.117.562 2.402.844 3.855.844 1.32 0 2.445-.168 3.371-.504.93-.336 1.696-.813 2.305-1.43a6.79 6.79 0 001.43-2.215c.351-.859.609-1.797.769-2.82M663.145 129.117c1.293 0 2.359-.125 3.191-.379.836-.254 1.496-.617 1.98-1.086a3.736 3.736 0 001.012-1.703c.188-.668.281-1.418.281-2.246 0-.805-.105-1.512-.32-2.129a3.658 3.658 0 00-1.113-1.582c-.524-.441-1.231-.777-2.121-1.004-.891-.226-2.02-.34-3.395-.34h-5.656v10.469h6.141zm-9.805-13.609h9.422c2.148 0 3.91.238 5.277.722 1.371.485 2.449 1.106 3.242 1.872.793.765 1.336 1.632 1.633 2.597.293.969.441 1.949.441 2.942 0 1.828-.382 3.382-1.148 4.671-.766 1.29-2.019 2.297-3.766 3.02l6.043 12.934h-4.148l-5.438-12.043c-.351.05-.726.086-1.128.097-.403.016-.766.024-1.086.024h-5.68v11.922h-3.664M687.492 115.504h3.746v17.359c0 2.981.555 5.211 1.664 6.688 1.11 1.476 2.942 2.215 5.508 2.215 2.59 0 4.418-.743 5.485-2.235 1.07-1.492 1.605-3.711 1.605-6.668v-17.359h3.742v17.359c0 2.149-.246 3.985-.742 5.5-.496 1.516-1.211 2.774-2.137 3.766-.925.992-2.066 1.719-3.422 2.176-1.355.457-2.882.683-4.574.683-3.461 0-6.14-.965-8.031-2.898-1.895-1.934-2.844-5.063-2.844-9.387M724.309 144.266h3.746v-28.758h-3.746v28.758zM750.449 118.809h-9.508v-3.305h22.758v3.305h-9.504v25.453h-3.746M776.629 115.504h4.59l9.265 24.328 9.426-24.328h4.43v28.758h-3.426v-22.676l-9.019 22.676h-3.024l-8.859-22.594v22.594h-3.383M819.727 115.504h18.648v3.223h-14.902v9.062h14.097v3.305h-14.097v9.949h15.668l-.606 3.219h-18.808M852.676 115.504h3.664l14.621 22.84v-22.84h3.586v28.758H871l-14.742-22.715v22.715h-3.582M896.98 118.809h-9.507v-3.305h22.757v3.305h-9.507v25.453h-3.743" fill="#2CD2D6"/></svg>