<svg xmlns="http://www.w3.org/2000/svg" style="isolation:isolate" viewBox="498 221 908.187 171.263" width="1210.916" height="228.351"><path d="M562.481 262.184a7.87 7.87 0 004.505 7.105c21.505 10.21 37.367 15.393 38.681 25.904 1.132 9.059-2.737 12.882-2.737 12.882s24.032-13.467 24.032-33.124c0-6.757-2.281-12.947-5.275-18.161-5.074-8.837-12.878-15.793-22.04-20.254l-31-15.098c-2.849-1.387-6.166.687-6.166 3.856v36.89z" fill="#862633"/><path d="M616.058 361.108c1.449-1.195 2.766-2.559 3.794-4.131 3.502-5.359 4.509-13.064-4.729-22.801-3.854-4.063-8.566-7.406-14.004-9.937a28247.846 28247.846 0 01-73.942-34.54c-15.923-7.469-24.538-15.361-25.607-23.458-.327-2.477.135-4.638.861-6.406l-.002-.001c-2.622 4.308-4.428 9.232-4.428 14.621 0 6.757 2.281 12.947 5.275 18.161 3.548 6.18 8.435 11.436 14.183 15.566-6.972 5.011-19.459 15.962-19.459 30.133 0 6.674 2.225 12.794 5.165 17.969 5.071 8.924 12.917 15.951 22.145 20.445l31.004 15.096c2.849 1.387 6.166-.687 6.166-3.856v-36.887a7.87 7.87 0 00-4.504-7.105c-21.505-10.21-37.367-15.393-38.681-25.904-.446-3.567-.113-6.311.451-8.34a54.274 54.274 0 005.57 3.138l37.165 18.096v.005c23.763 11.7 41.782 16.849 43.186 28.081 1.132 9.059-2.737 12.882-2.737 12.882l13.128-10.827z" fill="#D50032"/><path d="M621.686 320.65c-5.074-8.837-12.878-15.793-22.04-20.254l-37.165-18.102c-23.763-11.7-41.782-16.848-43.186-28.081-1.132-9.059 2.737-12.882 2.737-12.882s-9.01 5.051-15.996 13.479l-.684.846s-.502.657-1.017 1.354c-.708.959-1.333 1.986-1.769 3.095-.669 1.7-1.075 3.763-.765 6.108 1.06 8.012 9.631 15.843 25.474 23.274 32.02 15.02 62.376 29.159 73.941 34.54 5.465 2.543 10.2 5.903 14.075 9.988 5.47 5.765 10.346 14.103 5.027 22.671.342-.456.68-.918 1.006-1.392 3.259-4.731 5.636-10.301 5.636-16.484.001-6.756-2.28-12.946-5.274-18.16z" fill="#862633"/><g fill="#2D2D2B"><path d="M688.413 286.529c1.311 0 2.156.75 2.156 2.063v.563c0 1.97.845 2.906 3 2.906h25.502c3.095 0 4.031-.936 4.031-3.281v-4.22c0-2.343-.936-3.281-4.031-3.281h-30.378c-11.065 0-15.657-4.5-15.657-15.001v-9.751c0-10.501 4.592-15.001 15.657-15.001h36.753c11.437 0 15.282 3.656 15.282 14.721v3.843c0 1.313-.75 2.063-2.156 2.063h-14.065c-1.406 0-2.156-.75-2.156-2.063v-.563c0-1.97-.845-2.906-3.095-2.906h-23.252c-3.092 0-4.031.936-4.031 3.281v3.656c0 2.345.939 3.282 4.031 3.282h30.379c11.065 0 15.66 4.5 15.66 15.001v10.313c0 10.501-4.595 15.001-15.66 15.001h-38.909c-11.532 0-15.282-3.656-15.282-14.721v-3.843c0-1.313.75-2.063 2.156-2.063h14.065v.001zM771.186 256.621h-22.41c-1.406 0-2.156-.75-2.156-2.064v-10.969c0-1.313.75-2.063 2.156-2.063h63.756c1.409 0 2.159.75 2.159 2.063v10.969c0 1.314-.75 2.064-2.159 2.064h-22.407v48.472c0 1.313-.845 2.063-2.156 2.063h-14.626c-1.406 0-2.156-.75-2.156-2.063v-48.472h-.001zM860.996 296h-31.597l-3.564 9.187c-.467 1.314-1.406 1.97-3 1.97h-15.468c-1.22 0-1.784-.938-1.314-2.156l25.783-61.505c.47-1.314 1.409-1.97 3.095-1.97h21.377c1.595 0 2.439.656 3 1.97l25.783 61.505c.47 1.218-.092 2.156-1.217 2.156h-16.315c-1.686 0-2.531-.656-3-1.97L860.996 296zm-25.877-14.721h20.063l-10.031-25.877-10.032 25.877zM919.203 241.525c1.689 0 2.72.656 3.095 1.97l13.312 43.879 13.315-43.879c.375-1.314 1.406-1.97 3.095-1.97h26.344c1.409 0 2.159.75 2.159 2.063v61.505c0 1.313-.75 2.063-2.159 2.063h-14.626c-1.406 0-2.156-.75-2.156-2.063v-47.911L946.3 305.186c-.375 1.314-1.406 1.97-3.095 1.97h-16.032c-1.689 0-2.625-.656-3-1.97l-15.471-48.379v48.286c0 1.313-.845 2.063-2.156 2.063H893.42c-1.406 0-2.156-.75-2.156-2.063v-61.505c0-1.313.75-2.063 2.156-2.063h25.783zM1050.349 274.059c7.97 1.125 11.346 5.625 11.346 14.626v3.47c0 10.501-4.595 15.001-15.657 15.001H994.47c-1.406 0-2.156-.75-2.156-2.063v-61.505c0-1.313.75-2.063 2.156-2.063h50.629c10.97 0 15.66 4.5 15.66 15.001v2.906c-.001 8.626-3.19 13.221-10.41 14.627zm-39.095-7.312h25.594c3.659 0 4.97-1.22 4.97-4.595v-.938c0-3.375-1.311-4.593-4.97-4.593h-25.594v10.126zm0 14.626v10.687h26.438c3.75 0 5.064-1.218 5.064-4.593v-1.5c0-3.375-1.314-4.593-5.064-4.593h-26.438v-.001zM1139.687 256.527v13.032c0 10.501-4.595 15.94-15.657 15.94h-.284l18.002 19.595c.75.843.283 2.063-.75 2.063h-18.468c-1.784 0-2.534-.375-3.564-1.595l-16.126-19.127h-13.127v18.659c0 1.313-.845 2.063-2.25 2.063h-14.532c-1.406 0-2.156-.75-2.156-2.063v-61.506c0-1.313.75-2.063 2.156-2.063h51.099c11.062 0 15.657 4.501 15.657 15.002zm-49.974 14.814h24.752c5.439 0 6.281-.843 6.281-5.343v-4.032c0-4.5-.842-5.343-6.281-5.343h-24.752v14.718zM1168.83 305.093c0 1.313-.845 2.063-2.25 2.063h-14.532c-1.406 0-2.156-.75-2.156-2.063v-61.505c0-1.313.75-2.063 2.156-2.063h14.532c1.406 0 2.25.75 2.25 2.063v61.505zM1229.39 241.525c13.035 0 20.721 7.22 20.721 19.782v26.066c0 12.562-7.687 19.782-20.721 19.782h-46.504c-1.406 0-2.156-.75-2.156-2.063v-61.504c0-1.313.75-2.063 2.156-2.063h46.504zm-29.719 50.535h22.877c6.281 0 8.626-1.875 8.626-7.219V263.84c0-5.25-2.345-7.219-8.626-7.219h-22.877v35.439zM1313.102 263.558c-1.409 0-2.159-.75-2.159-2.061v-1.97c0-1.97-.936-2.906-3.092-2.906h-22.316c-6.095 0-7.22.936-7.22 6.001v23.438c0 5.064 1.125 6.001 7.22 6.001h22.316c2.156 0 3.092-.936 3.092-2.906v-5.531h-13.501c-1.406 0-2.156-.75-2.156-2.064v-10.312c0-1.314.75-2.064 2.156-2.064h29.722c1.406 0 2.156.75 2.156 2.064v21.188c0 11.065-3.842 14.721-15.376 14.721h-38.814c-10.876 0-15.751-4.5-15.751-15.001v-35.629c0-10.501 4.875-15.001 15.751-15.001h38.814c11.534 0 15.376 3.656 15.376 14.721v5.25c0 1.311-.75 2.061-2.156 2.061h-14.062zM1404.028 241.525c1.409 0 2.159.75 2.159 2.063v10.969c0 1.314-.75 2.064-2.159 2.064h-44.815v10.219h37.503c1.311 0 2.156.75 2.156 2.063v10.313c0 1.313-.845 2.063-2.156 2.063h-37.503v10.781h44.815c1.409 0 2.159.75 2.159 2.064v10.969c0 1.313-.75 2.063-2.159 2.063h-61.597c-1.406 0-2.156-.75-2.156-2.063v-61.505c0-1.313.75-2.063 2.156-2.063h61.597z"/></g><g><path d="M1070.592 360.557c.432 2.7 1.503 4.652 3.212 5.858 1.709 1.206 4.256 1.809 7.64 1.809 1.691 0 3.105-.188 4.238-.566 1.134-.377 2.042-.88 2.726-1.509a5.307 5.307 0 001.458-2.21 8.23 8.23 0 00.432-2.668c0-.754-.09-1.482-.27-2.184a4.482 4.482 0 00-1.053-1.913c-.522-.576-1.242-1.078-2.16-1.509-.918-.431-2.097-.773-3.536-1.025l-4.859-.862c-1.908-.323-3.6-.754-5.075-1.293-1.476-.539-2.726-1.23-3.753-2.076a7.969 7.969 0 01-2.322-3.153c-.522-1.258-.782-2.786-.782-4.584 0-1.76.368-3.306 1.106-4.635a10.036 10.036 0 012.997-3.342c1.259-.899 2.753-1.563 4.481-1.995 1.728-.431 3.599-.647 5.615-.647 2.555 0 4.688.279 6.398.837 1.708.559 3.104 1.304 4.184 2.241 1.08.936 1.898 2.007 2.457 3.212.557 1.207.98 2.439 1.269 3.698l-4.643.918c-.289-1.079-.657-2.042-1.107-2.888a6.356 6.356 0 00-1.781-2.106c-.738-.558-1.646-.98-2.726-1.269-1.08-.288-2.395-.432-3.942-.432-1.764 0-3.239.162-4.427.485-1.188.323-2.142.763-2.862 1.32-.72.556-1.233 1.22-1.538 1.992a6.589 6.589 0 00-.459 2.45c0 .934.117 1.75.351 2.45a4.164 4.164 0 001.188 1.805c.557.503 1.286.933 2.186 1.293.899.36 2.015.664 3.347.915l5.399.974c3.995.757 6.928 2.009 8.8 3.757 1.872 1.748 2.808 4.317 2.808 7.704 0 1.551-.298 3.001-.893 4.352-.595 1.351-1.479 2.532-2.651 3.542-1.171 1.009-2.64 1.801-4.408 2.379-1.767.577-3.84.865-6.22.865-2.271 0-4.336-.226-6.193-.678-1.857-.452-3.471-1.166-4.841-2.142a10.991 10.991 0 01-3.299-3.743c-.829-1.519-1.333-3.326-1.514-5.424h5.022v-.003zM1114.592 333.023h24.996v4.319h-19.975v12.147h18.896v4.427h-18.896v13.336h21.002l-.81 4.319h-25.212v-38.548h-.001zM1189.852 358.883c-.217 1.944-.704 3.753-1.461 5.426a13.633 13.633 0 01-3.082 4.346c-1.299 1.224-2.876 2.178-4.732 2.862-1.856.683-4.01 1.026-6.462 1.026-2.668 0-5.065-.451-7.193-1.35a14.388 14.388 0 01-5.408-3.942c-1.478-1.728-2.623-3.842-3.434-6.344-.811-2.501-1.217-5.353-1.217-8.557 0-3.239.432-6.118 1.298-8.638.866-2.519 2.072-4.643 3.623-6.37a15.431 15.431 0 015.489-3.942c2.109-.899 4.39-1.35 6.841-1.35 2.379 0 4.434.306 6.164.918 1.731.612 3.199 1.476 4.407 2.592a13.003 13.003 0 012.921 3.995c.739 1.548 1.307 3.258 1.704 5.129l-4.859.81c-.325-1.403-.749-2.672-1.272-3.806s-1.191-2.096-2.003-2.888c-.812-.792-1.786-1.395-2.923-1.809-1.137-.413-2.517-.621-4.14-.621-1.912 0-3.617.387-5.115 1.161a10.909 10.909 0 00-3.788 3.239c-1.028 1.386-1.813 3.06-2.354 5.021-.542 1.963-.812 4.13-.812 6.506 0 2.375.27 4.544.812 6.505.541 1.962 1.326 3.645 2.354 5.048 1.027 1.404 2.29 2.484 3.788 3.239 1.498.756 3.22 1.134 5.169 1.134 1.768 0 3.274-.225 4.519-.675 1.245-.45 2.273-1.088 3.084-1.917.811-.827 1.452-1.816 1.922-2.97a17.078 17.078 0 001.028-3.779h5.132v.001zM1208.208 333.023h5.021v23.269c0 3.995.742 6.983 2.228 8.962 1.485 1.98 3.945 2.97 7.382 2.97 3.471 0 5.923-.999 7.354-2.997 1.432-1.998 2.148-4.976 2.148-8.935v-23.269h5.021v23.269c0 2.88-.333 5.336-.998 7.369-.667 2.034-1.62 3.717-2.862 5.048-1.242 1.333-2.772 2.304-4.589 2.915-1.817.612-3.86.918-6.128.918-4.643 0-8.233-1.296-10.77-3.887-2.538-2.592-3.806-6.784-3.806-12.58v-23.052h-.001zM1257.553 333.023h12.633c2.879 0 5.237.323 7.073.971 1.835.648 3.284 1.485 4.345 2.511s1.79 2.186 2.187 3.482c.395 1.295.594 2.61.594 3.941 0 2.448-.513 4.535-1.538 6.263-1.026 1.727-2.709 3.078-5.048 4.049l8.098 17.331h-5.561l-7.288-16.143c-.469.072-.972.117-1.512.135-.54.019-1.026.027-1.458.027h-7.613v15.98h-4.913v-38.547h.001zm13.145 18.248c1.732 0 3.159-.17 4.278-.511 1.12-.34 2.004-.825 2.654-1.452a5.012 5.012 0 001.354-2.285c.253-.896.38-1.901.38-3.013 0-1.075-.145-2.025-.434-2.85-.288-.824-.786-1.532-1.489-2.123-.704-.592-1.652-1.04-2.844-1.345-1.192-.304-2.708-.457-4.55-.457h-7.583v14.037h8.234v-.001zM1303.767 333.023h5.021v38.548h-5.021v-38.548zM1338.805 337.45h-12.741v-4.427h30.504v4.427h-12.742v34.121h-5.021V337.45zM1384.858 355.212l-13.444-22.189h5.723l10.204 17.816 10.474-17.816h5.237l-13.173 22.189v16.359h-5.021v-16.359z" fill="#F32735"/></g></svg>