<svg xmlns="http://www.w3.org/2000/svg" style="isolation:isolate" viewBox="1077 602 908.187 171.263" width="1210.916" height="228.351"><path d="M1141.481 643.184a7.87 7.87 0 004.505 7.105c21.505 10.21 37.367 15.393 38.681 25.904 1.132 9.059-2.737 12.882-2.737 12.882s24.032-13.467 24.032-33.124c0-6.757-2.281-12.947-5.275-18.161-5.074-8.837-12.878-15.793-22.04-20.254l-31-15.098c-2.849-1.387-6.166.687-6.166 3.856v36.89z" fill="#652F6C"/><path d="M1195.057 742.108c1.449-1.195 2.766-2.559 3.794-4.131 3.502-5.359 4.509-13.064-4.729-22.801-3.854-4.063-8.566-7.406-14.004-9.937a28247.846 28247.846 0 01-73.942-34.54c-15.922-7.469-24.537-15.361-25.606-23.458-.327-2.477.135-4.638.861-6.406l-.002-.001c-2.622 4.308-4.428 9.232-4.428 14.621 0 6.757 2.281 12.947 5.275 18.161 3.548 6.18 8.435 11.436 14.183 15.566-6.972 5.011-19.459 15.962-19.459 30.133 0 6.674 2.225 12.794 5.165 17.969 5.071 8.924 12.917 15.951 22.145 20.445l31.004 15.096c2.849 1.387 6.166-.687 6.166-3.856v-36.887a7.87 7.87 0 00-4.504-7.105c-21.505-10.21-37.367-15.393-38.681-25.904-.446-3.567-.113-6.311.451-8.34a54.274 54.274 0 005.57 3.138l37.165 18.096v.005c23.763 11.7 41.782 16.849 43.186 28.081 1.132 9.059-2.737 12.882-2.737 12.882l13.127-10.827z" fill="#8F4899"/><path d="M1200.686 701.65c-5.074-8.837-12.878-15.793-22.04-20.254l-37.165-18.102c-23.763-11.7-41.782-16.848-43.186-28.081-1.132-9.059 2.737-12.882 2.737-12.882s-9.01 5.051-15.996 13.479l-.684.846s-.502.657-1.017 1.354c-.708.959-1.333 1.986-1.769 3.095-.669 1.7-1.075 3.763-.765 6.108 1.06 8.012 9.631 15.843 25.474 23.274 32.02 15.02 62.376 29.159 73.941 34.54 5.465 2.543 10.2 5.903 14.075 9.988 5.47 5.765 10.346 14.103 5.027 22.671.342-.456.68-.918 1.006-1.392 3.259-4.731 5.636-10.301 5.636-16.484.001-6.756-2.28-12.946-5.274-18.16z" fill="#652F6C"/><g><path d="M1662.516 741.45c.428 2.672 1.487 4.604 3.179 5.797 1.692 1.193 4.212 1.79 7.561 1.79 1.674 0 3.073-.186 4.194-.56 1.122-.373 2.021-.871 2.698-1.494a5.245 5.245 0 001.442-2.187 8.147 8.147 0 00.427-2.64c0-.746-.089-1.467-.267-2.161a4.443 4.443 0 00-1.042-1.893c-.517-.57-1.229-1.067-2.138-1.494-.908-.427-2.075-.765-3.499-1.014l-4.809-.853c-1.888-.32-3.562-.746-5.022-1.28-1.461-.534-2.698-1.218-3.714-2.054a7.884 7.884 0 01-2.297-3.12c-.517-1.245-.774-2.757-.774-4.536 0-1.742.364-3.272 1.095-4.587a9.933 9.933 0 012.966-3.307c1.246-.89 2.725-1.547 4.434-1.974 1.71-.427 3.561-.64 5.557-.64 2.529 0 4.639.276 6.332.828 1.691.553 3.072 1.291 4.14 2.217 1.069.927 1.878 1.986 2.431 3.179a18.771 18.771 0 011.256 3.66l-4.595.908c-.286-1.068-.651-2.021-1.096-2.858a6.27 6.27 0 00-1.763-2.084c-.73-.552-1.629-.97-2.698-1.256-1.069-.285-2.37-.428-3.901-.428-1.745 0-3.205.16-4.381.48-1.176.32-2.12.755-2.832 1.306-.713.55-1.22 1.208-1.522 1.972a6.516 6.516 0 00-.454 2.425c0 .924.115 1.732.348 2.425a4.122 4.122 0 001.176 1.786c.551.497 1.272.923 2.164 1.279.89.356 1.994.657 3.312.906l5.343.964c3.954.749 6.856 1.989 8.708 3.718 1.852 1.73 2.779 4.272 2.779 7.624 0 1.535-.295 2.97-.884 4.307-.589 1.337-1.464 2.506-2.623 3.505-1.159.998-2.613 1.782-4.362 2.354-1.749.571-3.8.856-6.155.856-2.248 0-4.291-.224-6.128-.671-1.838-.448-3.435-1.154-4.791-2.12a10.874 10.874 0 01-3.265-3.704c-.821-1.503-1.32-3.291-1.498-5.367h4.968v-.004zM1705.632 714.202h4.969v23.027c0 3.954.735 6.911 2.205 8.869 1.469 1.959 3.904 2.939 7.305 2.939 3.435 0 5.861-.989 7.278-2.966 1.417-1.977 2.126-4.924 2.126-8.842v-23.027h4.969v23.027c0 2.85-.33 5.281-.988 7.293-.66 2.013-1.603 3.678-2.832 4.995-1.229 1.319-2.743 2.28-4.542 2.885-1.798.606-3.82.909-6.064.909-4.595 0-8.148-1.283-10.658-3.847-2.511-2.565-3.767-6.714-3.767-12.449v-22.813h-.001zM1754.466 714.202h12.769c2.813 0 5.138.303 6.972.908 1.835.606 3.277 1.425 4.328 2.457a8.353 8.353 0 012.191 3.607c.409 1.372.614 2.823.614 4.354 0 1.603-.214 3.135-.641 4.595a9.161 9.161 0 01-2.244 3.847c-1.069 1.105-2.511 1.977-4.328 2.618-1.816.641-4.113.962-6.892.962h-7.907v14.8h-4.862v-38.148zm12.691 19.181c1.846 0 3.373-.178 4.58-.534 1.207-.356 2.148-.873 2.823-1.549a5.474 5.474 0 001.41-2.431c.267-.943.401-2.004.401-3.179 0-1.21-.143-2.279-.427-3.205a4.805 4.805 0 00-1.491-2.297c-.71-.605-1.66-1.06-2.849-1.362-1.189-.302-2.69-.454-4.501-.454h-7.776v15.013h7.83v-.002zM1799.239 714.202h12.769c2.813 0 5.138.303 6.972.908 1.835.606 3.277 1.425 4.328 2.457a8.353 8.353 0 012.191 3.607c.409 1.372.614 2.823.614 4.354 0 1.603-.214 3.135-.641 4.595a9.15 9.15 0 01-2.244 3.847c-1.069 1.105-2.511 1.977-4.328 2.618-1.816.641-4.114.962-6.892.962h-7.907v14.8h-4.862v-38.148zm12.692 19.181c1.846 0 3.373-.178 4.58-.534 1.207-.356 2.148-.873 2.823-1.549a5.483 5.483 0 001.41-2.431c.267-.943.401-2.004.401-3.179 0-1.21-.143-2.279-.427-3.205a4.805 4.805 0 00-1.491-2.297c-.71-.605-1.66-1.06-2.849-1.362-1.189-.302-2.69-.454-4.501-.454h-7.776v15.013h7.83v-.002zM1844.011 714.202h4.969v33.766h19.768l-.747 4.381h-23.989v-38.147h-.001zM1886.007 714.202h4.969v38.148h-4.969v-38.148zM1911.331 714.202h24.736v4.274h-19.768v12.021H1935v4.381h-18.701v13.197h20.784l-.803 4.274h-24.95v-38.147h.001zM1957.174 741.45c.427 2.672 1.486 4.604 3.178 5.797 1.692 1.193 4.213 1.79 7.561 1.79 1.675 0 3.073-.186 4.194-.56 1.123-.373 2.021-.871 2.698-1.494a5.225 5.225 0 001.442-2.187 8.147 8.147 0 00.427-2.64c0-.746-.089-1.467-.266-2.161a4.465 4.465 0 00-1.042-1.893c-.517-.57-1.23-1.067-2.138-1.494-.909-.427-2.075-.765-3.499-1.014l-4.809-.853c-1.888-.32-3.563-.746-5.022-1.28-1.461-.534-2.698-1.218-3.715-2.054a7.893 7.893 0 01-2.297-3.12c-.517-1.245-.774-2.757-.774-4.536 0-1.742.365-3.272 1.096-4.587a9.922 9.922 0 012.966-3.307c1.245-.89 2.725-1.547 4.433-1.974 1.71-.427 3.561-.64 5.558-.64 2.528 0 4.639.276 6.332.828 1.69.553 3.072 1.291 4.14 2.217 1.069.927 1.878 1.986 2.43 3.179a18.705 18.705 0 011.256 3.66l-4.595.908c-.286-1.068-.65-2.021-1.096-2.858a6.279 6.279 0 00-1.762-2.084c-.73-.552-1.629-.97-2.698-1.256-1.069-.286-2.37-.428-3.901-.428-1.745 0-3.205.16-4.381.48-1.175.32-2.119.755-2.831 1.306-.714.55-1.22 1.208-1.523 1.972a6.516 6.516 0 00-.454 2.425c0 .924.116 1.732.348 2.425a4.13 4.13 0 001.175 1.786c.552.497 1.272.923 2.164 1.279.889.356 1.995.657 3.312.906l5.342.964c3.954.749 6.857 1.989 8.708 3.718 1.853 1.73 2.779 4.272 2.779 7.624 0 1.535-.295 2.97-.884 4.307-.589 1.337-1.463 2.506-2.622 3.505-1.16.998-2.614 1.782-4.363 2.354-1.749.571-3.8.856-6.155.856-2.247 0-4.29-.224-6.128-.671-1.838-.448-3.435-1.154-4.79-2.12a10.853 10.853 0 01-3.265-3.704c-.821-1.503-1.32-3.291-1.498-5.367h4.969v-.004z" fill="#8F4899"/><g fill="#2D2D2B"><path d="M1267.413 667.636c1.311 0 2.156.75 2.156 2.063v.563c0 1.97.845 2.906 3 2.906h25.502c3.095 0 4.031-.936 4.031-3.281v-4.22c0-2.343-.936-3.281-4.031-3.281h-30.378c-11.065 0-15.657-4.5-15.657-15.001v-9.751c0-10.501 4.592-15.001 15.657-15.001h36.753c11.437 0 15.282 3.656 15.282 14.721v3.843c0 1.313-.75 2.063-2.156 2.063h-14.065c-1.406 0-2.156-.75-2.156-2.063v-.563c0-1.97-.845-2.906-3.095-2.906h-23.252c-3.092 0-4.031.936-4.031 3.281v3.656c0 2.345.939 3.282 4.031 3.282h30.379c11.065 0 15.66 4.5 15.66 15.001v10.313c0 10.501-4.595 15.001-15.66 15.001h-38.909c-11.532 0-15.282-3.656-15.282-14.721v-3.843c0-1.313.75-2.063 2.156-2.063h14.065v.001zM1350.186 637.728h-22.41c-1.406 0-2.156-.75-2.156-2.064v-10.969c0-1.313.75-2.063 2.156-2.063h63.756c1.409 0 2.159.75 2.159 2.063v10.969c0 1.314-.75 2.064-2.159 2.064h-22.407V686.2c0 1.313-.845 2.063-2.156 2.063h-14.626c-1.406 0-2.156-.75-2.156-2.063v-48.472h-.001zM1439.996 677.107h-31.597l-3.564 9.187c-.467 1.314-1.406 1.97-3 1.97h-15.468c-1.22 0-1.784-.938-1.314-2.156l25.783-61.505c.47-1.314 1.409-1.97 3.095-1.97h21.377c1.595 0 2.439.656 3 1.97l25.783 61.505c.47 1.218-.092 2.156-1.217 2.156h-16.315c-1.686 0-2.531-.656-3-1.97l-3.563-9.187zm-25.877-14.721h20.063l-10.031-25.877-10.032 25.877zM1498.203 622.632c1.689 0 2.72.656 3.095 1.97l13.312 43.879 13.315-43.879c.375-1.314 1.406-1.97 3.095-1.97h26.344c1.409 0 2.159.75 2.159 2.063V686.2c0 1.313-.75 2.063-2.159 2.063h-14.626c-1.406 0-2.156-.75-2.156-2.063v-47.911l-15.282 48.004c-.375 1.314-1.406 1.97-3.095 1.97h-16.032c-1.689 0-2.625-.656-3-1.97l-15.471-48.379V686.2c0 1.313-.845 2.063-2.156 2.063h-13.126c-1.406 0-2.156-.75-2.156-2.063v-61.505c0-1.313.75-2.063 2.156-2.063h25.783zM1629.349 655.166c7.97 1.125 11.345 5.625 11.345 14.626v3.47c0 10.501-4.595 15.001-15.657 15.001h-51.568c-1.406 0-2.156-.75-2.156-2.063v-61.505c0-1.313.75-2.063 2.156-2.063h50.629c10.97 0 15.66 4.5 15.66 15.001v2.906c.001 8.626-3.189 13.221-10.409 14.627zm-39.095-7.312h25.594c3.659 0 4.97-1.22 4.97-4.595v-.938c0-3.375-1.311-4.593-4.97-4.593h-25.594v10.126zm0 14.626v10.687h26.438c3.75 0 5.064-1.218 5.064-4.593v-1.5c0-3.375-1.314-4.593-5.064-4.593h-26.438v-.001zM1718.687 637.634v13.032c0 10.501-4.595 15.94-15.657 15.94h-.284l18.002 19.595c.75.843.283 2.063-.75 2.063h-18.468c-1.784 0-2.534-.375-3.564-1.595l-16.126-19.127h-13.127V686.2c0 1.313-.845 2.063-2.25 2.063h-14.532c-1.406 0-2.156-.75-2.156-2.063v-61.505c0-1.313.75-2.063 2.156-2.063h51.099c11.062 0 15.657 4.501 15.657 15.002zm-49.974 14.814h24.752c5.439 0 6.281-.843 6.281-5.343v-4.032c0-4.5-.842-5.343-6.281-5.343h-24.752v14.718zM1747.83 686.2c0 1.313-.845 2.063-2.25 2.063h-14.532c-1.406 0-2.156-.75-2.156-2.063v-61.505c0-1.313.75-2.063 2.156-2.063h14.532c1.406 0 2.25.75 2.25 2.063V686.2zM1808.39 622.632c13.035 0 20.721 7.22 20.721 19.782v26.066c0 12.562-7.687 19.782-20.721 19.782h-46.504c-1.406 0-2.156-.75-2.156-2.063v-61.504c0-1.313.75-2.063 2.156-2.063h46.504zm-29.719 50.535h22.877c6.281 0 8.626-1.875 8.626-7.219v-21.001c0-5.25-2.345-7.219-8.626-7.219h-22.877v35.439zM1892.102 644.665c-1.409 0-2.159-.75-2.159-2.061v-1.97c0-1.97-.936-2.906-3.092-2.906h-22.316c-6.095 0-7.22.936-7.22 6.001v23.438c0 5.064 1.125 6.001 7.22 6.001h22.316c2.156 0 3.092-.936 3.092-2.906v-5.531h-13.501c-1.406 0-2.156-.75-2.156-2.064v-10.313c0-1.314.75-2.064 2.156-2.064h29.722c1.406 0 2.156.75 2.156 2.064v21.188c0 11.065-3.842 14.721-15.376 14.721h-38.814c-10.876 0-15.751-4.5-15.751-15.001v-35.628c0-10.501 4.875-15.001 15.751-15.001h38.814c11.534 0 15.376 3.656 15.376 14.721v5.25c0 1.311-.75 2.061-2.156 2.061h-14.062zM1983.028 622.632c1.409 0 2.159.75 2.159 2.063v10.969c0 1.314-.75 2.064-2.159 2.064h-44.815v10.219h37.503c1.311 0 2.156.75 2.156 2.063v10.313c0 1.313-.845 2.063-2.156 2.063h-37.503v10.781h44.815c1.409 0 2.159.75 2.159 2.064V686.2c0 1.313-.75 2.063-2.159 2.063h-61.597c-1.406 0-2.156-.75-2.156-2.063v-61.505c0-1.313.75-2.063 2.156-2.063h61.597z"/></g></g></svg>