<svg xmlns="http://www.w3.org/2000/svg" style="isolation:isolate" viewBox="1077 602 908.187 171.263" width="1210.916" height="228.351"><path d="M1141.481 643.184a7.87 7.87 0 004.505 7.105c21.505 10.21 37.367 15.393 38.681 25.904 1.132 9.059-2.737 12.882-2.737 12.882s24.032-13.467 24.032-33.124c0-6.757-2.281-12.947-5.275-18.161-5.074-8.837-12.878-15.793-22.04-20.254l-31-15.098c-2.849-1.387-6.166.687-6.166 3.856v36.89z" fill="#F18A00"/><path d="M1195.058 742.108c1.449-1.195 2.766-2.559 3.794-4.131 3.502-5.359 4.509-13.064-4.729-22.801-3.854-4.063-8.566-7.406-14.004-9.937a28247.846 28247.846 0 01-73.942-34.54c-15.923-7.469-24.538-15.361-25.607-23.458-.327-2.477.135-4.638.861-6.406l-.002-.001c-2.622 4.308-4.428 9.232-4.428 14.621 0 6.757 2.281 12.947 5.275 18.161 3.548 6.18 8.435 11.436 14.183 15.566-6.972 5.011-19.459 15.962-19.459 30.133 0 6.674 2.225 12.794 5.165 17.969 5.071 8.924 12.917 15.951 22.145 20.445l31.004 15.096c2.849 1.387 6.166-.687 6.166-3.856v-36.887a7.87 7.87 0 00-4.504-7.105c-21.505-10.21-37.367-15.393-38.681-25.904-.446-3.567-.113-6.311.451-8.34a54.274 54.274 0 005.57 3.138l37.165 18.096v.005c23.763 11.7 41.782 16.849 43.186 28.081 1.132 9.059-2.737 12.882-2.737 12.882l13.128-10.827z" fill="#F5A800"/><path d="M1200.686 701.65c-5.074-8.837-12.878-15.793-22.04-20.254l-37.165-18.102c-23.763-11.7-41.782-16.848-43.186-28.081-1.132-9.059 2.737-12.882 2.737-12.882s-9.01 5.051-15.996 13.479l-.684.846s-.502.657-1.017 1.354c-.708.959-1.333 1.986-1.769 3.095-.669 1.7-1.075 3.763-.765 6.108 1.06 8.012 9.631 15.843 25.474 23.274 32.02 15.02 62.376 29.159 73.941 34.54 5.465 2.543 10.2 5.903 14.075 9.988 5.47 5.765 10.346 14.103 5.027 22.671.342-.456.68-.918 1.006-1.392 3.259-4.731 5.636-10.301 5.636-16.484.001-6.756-2.28-12.946-5.274-18.16z" fill="#F18A00"/><g fill="#2D2D2B"><path d="M1267.413 667.529c1.311 0 2.156.75 2.156 2.063v.563c0 1.97.845 2.906 3 2.906h25.502c3.095 0 4.031-.936 4.031-3.281v-4.22c0-2.343-.936-3.281-4.031-3.281h-30.378c-11.065 0-15.657-4.5-15.657-15.001v-9.751c0-10.501 4.592-15.001 15.657-15.001h36.753c11.437 0 15.282 3.656 15.282 14.721v3.843c0 1.313-.75 2.063-2.156 2.063h-14.065c-1.406 0-2.156-.75-2.156-2.063v-.563c0-1.97-.845-2.906-3.095-2.906h-23.252c-3.092 0-4.031.936-4.031 3.281v3.656c0 2.345.939 3.282 4.031 3.282h30.379c11.065 0 15.66 4.5 15.66 15.001v10.313c0 10.501-4.595 15.001-15.66 15.001h-38.909c-11.532 0-15.282-3.656-15.282-14.721v-3.843c0-1.313.75-2.063 2.156-2.063h14.065v.001zM1350.186 637.621h-22.41c-1.406 0-2.156-.75-2.156-2.064v-10.969c0-1.313.75-2.063 2.156-2.063h63.756c1.409 0 2.159.75 2.159 2.063v10.969c0 1.314-.75 2.064-2.159 2.064h-22.407v48.472c0 1.313-.845 2.063-2.156 2.063h-14.626c-1.406 0-2.156-.75-2.156-2.063v-48.472h-.001zM1439.996 677h-31.597l-3.564 9.187c-.467 1.314-1.406 1.97-3 1.97h-15.468c-1.22 0-1.784-.938-1.314-2.156l25.783-61.505c.47-1.314 1.409-1.97 3.095-1.97h21.377c1.595 0 2.439.656 3 1.97l25.783 61.505c.47 1.218-.092 2.156-1.217 2.156h-16.315c-1.686 0-2.531-.656-3-1.97l-3.563-9.187zm-25.877-14.721h20.063l-10.031-25.877-10.032 25.877zM1498.203 622.525c1.689 0 2.72.656 3.095 1.97l13.312 43.879 13.315-43.879c.375-1.314 1.406-1.97 3.095-1.97h26.344c1.409 0 2.159.75 2.159 2.063v61.505c0 1.313-.75 2.063-2.159 2.063h-14.626c-1.406 0-2.156-.75-2.156-2.063v-47.911l-15.282 48.004c-.375 1.314-1.406 1.97-3.095 1.97h-16.032c-1.689 0-2.625-.656-3-1.97l-15.471-48.379v48.286c0 1.313-.845 2.063-2.156 2.063h-13.126c-1.406 0-2.156-.75-2.156-2.063v-61.505c0-1.313.75-2.063 2.156-2.063h25.783zM1629.349 655.059c7.97 1.125 11.346 5.625 11.346 14.626v3.47c0 10.501-4.595 15.001-15.657 15.001h-51.568c-1.406 0-2.156-.75-2.156-2.063v-61.505c0-1.313.75-2.063 2.156-2.063h50.629c10.97 0 15.66 4.5 15.66 15.001v2.906c-.001 8.626-3.19 13.221-10.41 14.627zm-39.095-7.312h25.594c3.659 0 4.97-1.22 4.97-4.595v-.938c0-3.375-1.311-4.593-4.97-4.593h-25.594v10.126zm0 14.626v10.687h26.438c3.75 0 5.064-1.218 5.064-4.593v-1.5c0-3.375-1.314-4.593-5.064-4.593h-26.438v-.001zM1718.687 637.527v13.032c0 10.501-4.595 15.94-15.657 15.94h-.284l18.002 19.595c.75.843.283 2.063-.75 2.063h-18.468c-1.784 0-2.534-.375-3.564-1.595l-16.126-19.127h-13.127v18.659c0 1.313-.845 2.063-2.25 2.063h-14.532c-1.406 0-2.156-.75-2.156-2.063v-61.506c0-1.313.75-2.063 2.156-2.063h51.099c11.062 0 15.657 4.501 15.657 15.002zm-49.974 14.814h24.752c5.439 0 6.281-.843 6.281-5.343v-4.032c0-4.5-.842-5.343-6.281-5.343h-24.752v14.718zM1747.83 686.093c0 1.313-.845 2.063-2.25 2.063h-14.532c-1.406 0-2.156-.75-2.156-2.063v-61.505c0-1.313.75-2.063 2.156-2.063h14.532c1.406 0 2.25.75 2.25 2.063v61.505zM1808.39 622.525c13.035 0 20.721 7.22 20.721 19.782v26.066c0 12.562-7.687 19.782-20.721 19.782h-46.504c-1.406 0-2.156-.75-2.156-2.063v-61.504c0-1.313.75-2.063 2.156-2.063h46.504zm-29.719 50.535h22.877c6.281 0 8.626-1.875 8.626-7.219V644.84c0-5.25-2.345-7.219-8.626-7.219h-22.877v35.439zM1892.102 644.558c-1.409 0-2.159-.75-2.159-2.061v-1.97c0-1.97-.936-2.906-3.092-2.906h-22.316c-6.095 0-7.22.936-7.22 6.001v23.438c0 5.064 1.125 6.001 7.22 6.001h22.316c2.156 0 3.092-.936 3.092-2.906v-5.531h-13.501c-1.406 0-2.156-.75-2.156-2.064v-10.312c0-1.314.75-2.064 2.156-2.064h29.722c1.406 0 2.156.75 2.156 2.064v21.188c0 11.065-3.842 14.721-15.376 14.721h-38.814c-10.876 0-15.751-4.5-15.751-15.001v-35.629c0-10.501 4.875-15.001 15.751-15.001h38.814c11.534 0 15.376 3.656 15.376 14.721v5.25c0 1.311-.75 2.061-2.156 2.061h-14.062zM1983.028 622.525c1.409 0 2.159.75 2.159 2.063v10.969c0 1.314-.75 2.064-2.159 2.064h-44.815v10.219h37.503c1.311 0 2.156.75 2.156 2.063v10.313c0 1.313-.845 2.063-2.156 2.063h-37.503v10.781h44.815c1.409 0 2.159.75 2.159 2.064v10.969c0 1.313-.75 2.063-2.159 2.063h-61.597c-1.406 0-2.156-.75-2.156-2.063v-61.505c0-1.313.75-2.063 2.156-2.063h61.597z"/></g><g><path d="M1672.217 719.601h-12.628v-4.388h30.233v4.388h-12.629v33.817h-4.976v-33.817zM1706.997 715.213h12.521c2.853 0 5.19.32 7.01.962 1.819.642 3.255 1.472 4.307 2.489 1.052 1.016 1.774 2.167 2.168 3.451.392 1.284.588 2.587.588 3.906 0 2.426-.508 4.495-1.525 6.207-1.017 1.712-2.685 3.05-5.003 4.013l8.026 17.177h-5.512l-7.223-15.999a12.54 12.54 0 01-1.499.134c-.535.019-1.016.027-1.445.027h-7.545v15.838h-4.869v-38.205h.001zm13.028 18.086c1.717 0 3.131-.169 4.24-.507 1.11-.337 1.987-.818 2.63-1.44a4.975 4.975 0 001.342-2.265c.251-.888.377-1.884.377-2.986 0-1.065-.144-2.007-.43-2.825-.286-.817-.779-1.518-1.476-2.105-.698-.587-1.638-1.031-2.818-1.333-1.182-.302-2.684-.453-4.509-.453h-7.515v13.912h8.159v.002zM1764.839 715.213h5.19l14.823 38.205h-5.351l-4.013-10.648h-16.373l-4.013 10.648h-5.137l14.874-38.205zm9.15 23.276l-6.742-17.712-6.635 17.712h13.377zM1801.654 715.213h4.976v38.205h-4.976v-38.205zM1827.017 715.213h4.869l19.424 30.339v-30.339h4.763v38.205h-4.709l-19.584-30.179v30.179h-4.762v-38.205h-.001zM1876.512 715.213h4.976v38.205h-4.976v-38.205zM1901.875 715.213h4.869l19.424 30.339v-30.339h4.763v38.205h-4.709l-19.584-30.179v30.179h-4.762v-38.205h-.001zM1968.117 733.78h14.287v15.303a17.083 17.083 0 01-3.184 2.328 22.402 22.402 0 01-7.544 2.649 24.872 24.872 0 01-3.933.321c-2.818 0-5.324-.455-7.518-1.365-2.194-.909-4.049-2.221-5.565-3.933-1.516-1.712-2.667-3.807-3.451-6.287-.784-2.48-1.177-5.289-1.177-8.428 0-3.21.428-6.064 1.284-8.561.856-2.496 2.042-4.602 3.558-6.314a14.941 14.941 0 015.431-3.906c2.104-.891 4.405-1.338 6.903-1.338 2.141 0 4.03.262 5.672.786 1.64.523 3.041 1.273 4.201 2.248a12.42 12.42 0 012.862 3.468c.749 1.338 1.32 2.828 1.713 4.468l-4.763.802a14.445 14.445 0 00-1.15-3.05 8.125 8.125 0 00-1.846-2.381c-.749-.66-1.668-1.168-2.756-1.525-1.088-.357-2.4-.535-3.933-.535-1.998 0-3.745.383-5.244 1.149a10.356 10.356 0 00-3.745 3.231c-.999 1.39-1.757 3.054-2.274 4.995-.518 1.942-.776 4.087-.776 6.437 0 2.35.249 4.496.749 6.437.499 1.941 1.275 3.606 2.328 4.995a10.539 10.539 0 003.933 3.205c1.569.748 3.424 1.122 5.565 1.122 1.926 0 3.736-.232 5.431-.696a13.73 13.73 0 004.575-2.194v-9.15h-9.632v-4.281h-.001z" fill="#F5A800"/></g></svg>