<svg width="1210.92" height="228.347" style="isolation:isolate" viewBox="1077 602 908.19 171.26" xmlns="http://www.w3.org/2000/svg"><path d="M1141.5 643.18a7.87 7.87 0 004.505 7.105c21.505 10.21 37.367 15.393 38.681 25.904 1.132 9.059-2.737 12.882-2.737 12.882s24.032-13.467 24.032-33.124c0-6.757-2.281-12.947-5.275-18.161-5.074-8.837-12.878-15.793-22.04-20.254l-31-15.098c-2.849-1.387-6.166.687-6.166 3.856v36.89z" fill="#98989a"/><path d="M1195.1 742.11c1.449-1.195 2.766-2.559 3.794-4.131 3.502-5.359 4.509-13.064-4.729-22.801-3.854-4.063-8.566-7.406-14.004-9.937a28247.846 28247.846 0 01-73.942-34.54c-15.922-7.469-24.537-15.361-25.606-23.458-.327-2.477.135-4.638.861-6.406l-.002-.001c-2.622 4.308-4.428 9.232-4.428 14.621 0 6.757 2.281 12.947 5.275 18.161 3.548 6.18 8.435 11.436 14.183 15.566-6.972 5.011-19.459 15.962-19.459 30.133 0 6.674 2.225 12.794 5.165 17.969 5.071 8.924 12.917 15.951 22.145 20.445l31.004 15.096c2.849 1.387 6.166-.687 6.166-3.856v-36.887a7.87 7.87 0 00-4.504-7.105c-21.505-10.21-37.367-15.393-38.681-25.904-.446-3.567-.113-6.311.451-8.34a54.274 54.274 0 005.57 3.138l37.165 18.096v.005c23.763 11.7 41.782 16.849 43.186 28.081 1.132 9.059-2.737 12.882-2.737 12.882l13.127-10.827z" fill="#bbb"/><path d="M1200.7 701.65c-5.074-8.837-12.878-15.793-22.04-20.254l-37.165-18.102c-23.763-11.7-41.782-16.848-43.186-28.081-1.132-9.059 2.737-12.882 2.737-12.882s-9.01 5.051-15.996 13.479l-.684.846s-.502.657-1.017 1.354c-.708.959-1.333 1.986-1.769 3.095-.669 1.7-1.075 3.763-.765 6.108 1.06 8.012 9.631 15.843 25.474 23.274 32.02 15.02 62.376 29.159 73.941 34.54 5.465 2.543 10.2 5.903 14.075 9.988 5.47 5.765 10.346 14.103 5.027 22.671.342-.456.68-.918 1.006-1.392 3.259-4.731 5.636-10.301 5.636-16.484.001-6.756-2.28-12.946-5.274-18.16z" fill="#98989a"/><path d="M1602.6 719.27h-12.198v-4.238h29.203v4.238h-12.199v32.666h-4.807V719.27h.001zM1636.2 715.03h12.095c2.756 0 5.013.309 6.771.93 1.757.62 3.144 1.421 4.16 2.404 1.016.982 1.714 2.093 2.094 3.334.379 1.24.568 2.499.568 3.773 0 2.344-.491 4.342-1.473 5.996-.983 1.653-2.594 2.946-4.833 3.876l7.753 16.592h-5.324l-6.977-15.455a12.18 12.18 0 01-1.448.129c-.517.018-.982.026-1.395.026h-7.288v15.299h-4.703V715.03zm12.585 17.47c1.658 0 3.024-.163 4.096-.489s1.919-.79 2.541-1.391 1.054-1.33 1.296-2.188c.243-.858.364-1.82.364-2.884 0-1.029-.139-1.938-.415-2.729-.276-.789-.752-1.466-1.426-2.033s-1.582-.996-2.722-1.288c-1.141-.291-2.593-.437-4.356-.437h-7.26V732.5h7.882zM1692.1 715.03h5.013l14.318 36.904h-5.169l-3.877-10.286h-15.816l-3.877 10.286h-4.962l14.37-36.904zm8.838 22.484l-6.512-17.109-6.41 17.109h12.922zM1727.6 715.03h4.703l18.763 29.306V715.03h4.601v36.904h-4.549l-18.918-29.151v29.151h-4.6V715.03zM1778.1 741.39c.414 2.585 1.439 4.454 3.075 5.608s4.075 1.732 7.314 1.732c1.619 0 2.972-.18 4.058-.542 1.085-.361 1.955-.843 2.61-1.445a5.065 5.065 0 001.395-2.116 7.872 7.872 0 00.414-2.554 8.4 8.4 0 00-.258-2.091 4.306 4.306 0 00-1.008-1.832c-.5-.551-1.189-1.032-2.068-1.445-.878-.413-2.008-.74-3.385-.981l-4.652-.826c-1.827-.309-3.446-.722-4.859-1.238s-2.61-1.178-3.593-1.987c-.982-.808-1.723-1.815-2.223-3.019s-.749-2.667-.749-4.388c0-1.685.352-3.165 1.059-4.438a9.622 9.622 0 012.869-3.2c1.206-.861 2.636-1.496 4.29-1.91 1.654-.413 3.445-.62 5.376-.62 2.446 0 4.488.267 6.125.801 1.636.535 2.972 1.249 4.005 2.145 1.034.896 1.817 1.921 2.352 3.075a18.106 18.106 0 011.215 3.541l-4.445.878c-.277-1.033-.629-1.955-1.06-2.765a6.07 6.07 0 00-1.706-2.016c-.707-.534-1.576-.939-2.61-1.215s-2.293-.414-3.773-.414c-1.688 0-3.101.155-4.238.464s-2.051.73-2.74 1.264c-.69.532-1.18 1.168-1.473 1.907s-.44 1.521-.44 2.345c0 .894.112 1.675.336 2.345a3.99 3.99 0 001.137 1.728c.533.481 1.231.893 2.093 1.237.861.344 1.929.636 3.204.876l5.169.932c3.825.725 6.633 1.924 8.425 3.597 1.792 1.674 2.688 4.132 2.688 7.375 0 1.485-.285 2.873-.855 4.167s-1.416 2.424-2.538 3.391c-1.121.966-2.528 1.724-4.22 2.277-1.692.552-3.677.828-5.954.828-2.174 0-4.151-.217-5.928-.649-1.778-.433-3.323-1.116-4.635-2.051s-2.365-2.129-3.159-3.583-1.277-3.184-1.449-5.192h4.809v.004zM1820.2 715.03h12.353c2.722 0 4.97.293 6.745.878 1.775.586 3.17 1.378 4.187 2.377a8.075 8.075 0 012.119 3.489c.396 1.327.594 2.731.594 4.212 0 1.551-.207 3.033-.62 4.445a8.856 8.856 0 01-2.17 3.721c-1.034 1.069-2.429 1.912-4.187 2.533-1.757.62-3.979.931-6.668.931h-7.65v14.317h-4.703V715.03zm12.278 18.555c1.785 0 3.263-.173 4.43-.517s2.078-.844 2.731-1.499 1.107-1.439 1.365-2.352.388-1.938.388-3.076c0-1.171-.138-2.205-.413-3.101s-.756-1.636-1.443-2.223c-.687-.585-1.606-1.025-2.757-1.318-1.15-.292-2.602-.439-4.354-.439h-7.523v14.524h7.576v.001zM1879.4 752.87c-2.516 0-4.816-.423-6.901-1.267a14.627 14.627 0 01-5.375-3.721c-1.5-1.636-2.662-3.661-3.489-6.073-.827-2.411-1.241-5.168-1.241-8.27 0-3.101.422-5.858 1.267-8.27.843-2.411 2.016-4.445 3.515-6.099s3.29-2.912 5.376-3.773c2.084-.861 4.367-1.292 6.848-1.292 2.515 0 4.815.423 6.901 1.266a14.46 14.46 0 015.35 3.721c1.481 1.637 2.635 3.653 3.462 6.047.827 2.396 1.241 5.144 1.241 8.245s-.405 5.867-1.215 8.296-1.956 4.47-3.437 6.125a14.536 14.536 0 01-5.35 3.773c-2.085.86-4.402 1.292-6.952 1.292zm0-4.135c1.964 0 3.695-.362 5.194-1.086a10.127 10.127 0 003.747-3.075c.999-1.326 1.758-2.928 2.275-4.807.517-1.878.775-3.971.775-6.28 0-2.275-.258-4.35-.775-6.229-.517-1.877-1.284-3.489-2.3-4.833a10.358 10.358 0 00-3.747-3.101c-1.483-.724-3.205-1.085-5.169-1.085-1.999 0-3.747.361-5.246 1.085s-2.757 1.758-3.773 3.101c-1.017 1.344-1.775 2.955-2.274 4.833-.5 1.879-.75 3.954-.75 6.229 0 2.309.25 4.402.75 6.28.499 1.878 1.248 3.48 2.249 4.807a10.135 10.135 0 003.747 3.075c1.499.724 3.264 1.086 5.297 1.086zM1914.8 715.03h12.095c2.756 0 5.013.309 6.771.93 1.757.62 3.144 1.421 4.16 2.404 1.016.982 1.714 2.093 2.094 3.334.379 1.24.568 2.499.568 3.773 0 2.344-.491 4.342-1.473 5.996-.983 1.653-2.594 2.946-4.833 3.876l7.753 16.592h-5.324l-6.977-15.455a12.18 12.18 0 01-1.448.129c-.517.018-.982.026-1.395.026h-7.288v15.299h-4.703V715.03zm12.584 17.47c1.658 0 3.024-.163 4.096-.489s1.919-.79 2.541-1.391 1.054-1.33 1.296-2.188c.243-.858.364-1.82.364-2.884 0-1.029-.139-1.938-.415-2.729-.276-.789-.752-1.466-1.426-2.033s-1.582-.996-2.722-1.288c-1.141-.291-2.593-.437-4.356-.437h-7.26V732.5h7.882zM1967 719.27h-12.198v-4.238h29.203v4.238h-12.199v32.666h-4.807V719.27h.001z" fill="#bbb"/><g fill="#2D2D2B"><path d="M1267.4 667.35c1.311 0 2.156.75 2.156 2.063v.563c0 1.97.845 2.906 3 2.906h25.502c3.095 0 4.031-.936 4.031-3.281v-4.22c0-2.343-.936-3.281-4.031-3.281h-30.378c-11.065 0-15.657-4.5-15.657-15.001v-9.751c0-10.501 4.592-15.001 15.657-15.001h36.753c11.437 0 15.282 3.656 15.282 14.721v3.843c0 1.313-.75 2.063-2.156 2.063h-14.065c-1.406 0-2.156-.75-2.156-2.063v-.563c0-1.97-.845-2.906-3.095-2.906h-23.252c-3.092 0-4.031.936-4.031 3.281v3.656c0 2.345.939 3.282 4.031 3.282h30.379c11.065 0 15.66 4.5 15.66 15.001v10.313c0 10.501-4.595 15.001-15.66 15.001h-38.909c-11.532 0-15.282-3.656-15.282-14.721v-3.842c0-1.313.75-2.063 2.156-2.063h14.065zM1350.2 637.44h-22.41c-1.406 0-2.156-.75-2.156-2.064v-10.969c0-1.313.75-2.063 2.156-2.063h63.756c1.409 0 2.159.75 2.159 2.063v10.969c0 1.314-.75 2.064-2.159 2.064h-22.407v48.472c0 1.313-.845 2.063-2.156 2.063h-14.626c-1.406 0-2.156-.75-2.156-2.063V637.44h-.001zM1440 676.82h-31.597l-3.564 9.187c-.467 1.314-1.406 1.97-3 1.97h-15.468c-1.22 0-1.784-.938-1.314-2.156l25.783-61.505c.47-1.314 1.409-1.97 3.095-1.97h21.377c1.595 0 2.439.656 3 1.97l25.783 61.505c.47 1.218-.092 2.156-1.217 2.156h-16.315c-1.686 0-2.531-.656-3-1.97L1440 676.82zm-25.877-14.72h20.063l-10.031-25.877-10.032 25.877zM1498.2 622.34c1.689 0 2.72.656 3.095 1.97l13.312 43.879 13.315-43.879c.375-1.314 1.406-1.97 3.095-1.97h26.344c1.409 0 2.159.75 2.159 2.063v61.505c0 1.313-.75 2.063-2.159 2.063h-14.626c-1.406 0-2.156-.75-2.156-2.063v-47.911l-15.282 48.004c-.375 1.314-1.406 1.97-3.095 1.97h-16.032c-1.689 0-2.625-.656-3-1.97l-15.471-48.379v48.286c0 1.313-.845 2.063-2.156 2.063h-13.126c-1.406 0-2.156-.75-2.156-2.063v-61.505c0-1.313.75-2.063 2.156-2.063h25.783zM1629.3 654.88c7.97 1.125 11.345 5.625 11.345 14.626v3.47c0 10.501-4.595 15.001-15.657 15.001h-51.568c-1.406 0-2.156-.75-2.156-2.063V624.41c0-1.313.75-2.063 2.156-2.063h50.629c10.97 0 15.66 4.5 15.66 15.001v2.906c.001 8.626-3.189 13.221-10.409 14.626zm-39.095-7.311h25.594c3.659 0 4.97-1.22 4.97-4.595v-.938c0-3.375-1.311-4.593-4.97-4.593h-25.594v10.126zm0 14.626v10.687h26.438c3.75 0 5.064-1.218 5.064-4.593v-1.5c0-3.375-1.314-4.593-5.064-4.593h-26.438v-.001zM1718.7 637.34v13.032c0 10.501-4.595 15.94-15.657 15.94h-.284l18.002 19.595c.75.843.283 2.063-.75 2.063h-18.468c-1.784 0-2.534-.375-3.564-1.595l-16.126-19.127h-13.127v18.659c0 1.313-.845 2.063-2.25 2.063h-14.532c-1.406 0-2.156-.75-2.156-2.063v-61.505c0-1.313.75-2.063 2.156-2.063h51.099c11.062 0 15.657 4.5 15.657 15.001zm-49.974 14.814h24.752c5.439 0 6.281-.843 6.281-5.343v-4.032c0-4.5-.842-5.343-6.281-5.343h-24.752v14.718zM1747.8 685.91c0 1.313-.845 2.063-2.25 2.063h-14.532c-1.406 0-2.156-.75-2.156-2.063v-61.505c0-1.313.75-2.063 2.156-2.063h14.532c1.406 0 2.25.75 2.25 2.063v61.505zM1808.4 622.34c13.035 0 20.721 7.22 20.721 19.782v26.066c0 12.562-7.687 19.782-20.721 19.782h-46.504c-1.406 0-2.156-.75-2.156-2.063v-61.504c0-1.313.75-2.063 2.156-2.063h46.504zm-29.719 50.535h22.877c6.281 0 8.626-1.875 8.626-7.219v-21.001c0-5.25-2.345-7.219-8.626-7.219h-22.877v35.439zM1892.1 644.38c-1.409 0-2.159-.75-2.159-2.061v-1.97c0-1.97-.936-2.906-3.092-2.906h-22.316c-6.095 0-7.22.936-7.22 6.001v23.438c0 5.064 1.125 6.001 7.22 6.001h22.316c2.156 0 3.092-.936 3.092-2.906v-5.531h-13.501c-1.406 0-2.156-.75-2.156-2.064v-10.313c0-1.314.75-2.064 2.156-2.064h29.722c1.406 0 2.156.75 2.156 2.064v21.188c0 11.065-3.842 14.721-15.376 14.721h-38.814c-10.876 0-15.751-4.5-15.751-15.001v-35.629c0-10.501 4.875-15.001 15.751-15.001h38.814c11.534 0 15.376 3.656 15.376 14.721v5.25c0 1.311-.75 2.061-2.156 2.061H1892.1v.001zM1983 622.34c1.409 0 2.159.75 2.159 2.063v10.969c0 1.314-.75 2.064-2.159 2.064h-44.815v10.219h37.503c1.311 0 2.156.75 2.156 2.063v10.313c0 1.313-.845 2.063-2.156 2.063h-37.503v10.781H1983c1.409 0 2.159.75 2.159 2.064v10.969c0 1.313-.75 2.063-2.159 2.063h-61.597c-1.406 0-2.156-.75-2.156-2.063v-61.505c0-1.313.75-2.063 2.156-2.063H1983z"/></g></svg>