<svg width="133" height="46" viewBox="0 0 133 46" fill="none" xmlns="http://www.w3.org/2000/svg">
<path d="M118.995 11.9051C118.105 11.9051 117.731 12.7125 117.673 13.2974H120.177C120.189 12.7711 119.954 11.9051 118.995 11.9051ZM63.0069 15.0289C63.0069 15.5914 63.3699 15.85 63.8257 15.85C64.4112 15.85 64.8206 15.4747 64.9614 15.0647C64.9961 14.9597 64.9961 14.8541 64.9961 14.7485V13.9651C63.9784 13.9537 63.0069 14.1633 63.0069 15.0289ZM90.7082 11.9636C89.6893 11.9636 89.28 12.9579 89.28 13.906C89.28 15.0065 89.8298 15.8373 90.6966 15.8373C91.5151 15.8373 92.089 15.0413 92.089 13.8833C92.089 12.9936 91.6906 11.9636 90.7082 11.9636ZM81.0368 11.9051C80.1475 11.9051 79.7728 12.7125 79.7144 13.2974H82.2185C82.2302 12.7711 81.996 11.9051 81.0368 11.9051ZM70.6751 12.0448C70.0902 12.0448 69.5515 12.4672 69.3998 13.0982C69.3754 13.2042 69.3517 13.3325 69.3517 13.4729V14.3972C69.3517 14.5143 69.364 14.6322 69.3874 14.7378C69.5395 15.3217 70.0431 15.7444 70.6628 15.7444C71.5643 15.7444 72.1145 15.0289 72.1145 13.8715C72.1145 12.8652 71.6342 12.0448 70.6751 12.0448ZM121.498 30.6592H114.12C114.149 31.7506 114.506 32.5824 115.191 33.1578C115.812 33.6751 116.615 33.934 117.604 33.934C118.698 33.934 119.69 33.7603 120.586 33.4058L120.973 35.1158C119.93 35.5749 118.69 35.7972 117.26 35.7972C115.548 35.7972 114.201 35.2955 113.222 34.2866C112.243 33.2778 111.75 31.9228 111.75 30.2242C111.75 28.5514 112.208 27.1656 113.116 26.0528C114.077 24.8707 115.367 24.2801 116.988 24.2801C118.587 24.2801 119.792 24.8707 120.609 26.0528C121.259 26.9967 121.588 28.1596 121.588 29.5412C121.588 29.9779 121.556 30.3499 121.498 30.6592ZM111.349 13.3325V16.75H109.911V8.44149H111.349V11.8229H111.373C111.548 11.5542 111.794 11.3316 112.087 11.1799C112.379 11.0148 112.719 10.9222 113.082 10.9222C114.053 10.9222 115.072 11.5655 115.072 13.3917V16.75H113.632V13.5437C113.632 12.7239 113.327 12.092 112.532 12.092C111.97 12.092 111.572 12.4672 111.409 12.8994C111.362 13.0287 111.349 13.1804 111.349 13.3325ZM110.977 26.6916C110.735 26.6474 110.473 26.6292 110.202 26.6292C109.337 26.6292 108.671 26.9551 108.199 27.6066C107.788 28.1846 107.585 28.9023 107.585 29.79V35.5951H105.126V28.0098C105.126 26.7423 105.103 25.5804 105.06 24.5289H107.199L107.291 26.6474H107.358C107.615 25.9212 108.023 25.3348 108.588 24.8981C109.134 24.4991 109.729 24.3077 110.366 24.3077C110.591 24.3077 110.798 24.3194 110.977 24.3493V26.6916ZM104.665 11.0506H105.473V9.98489L106.889 9.58679V11.0506H108.257V12.127H106.889V14.6435C106.889 15.3457 107.076 15.6969 107.626 15.6969C107.883 15.6969 108.024 15.6853 108.188 15.6384L108.212 16.7273C108 16.8082 107.614 16.8796 107.17 16.8796C106.631 16.8796 106.198 16.7032 105.929 16.4114C105.613 16.0836 105.473 15.5563 105.473 14.8076V12.127H104.665V11.0506ZM102.124 34.1645C101.104 35.2848 99.7532 35.8456 98.0721 35.8456C96.4451 35.8456 95.1475 35.3072 94.1843 34.2291C93.2219 33.1546 92.742 31.7906 92.742 30.1533C92.742 28.44 93.2377 27.034 94.2317 25.943C95.2274 24.8458 96.5632 24.3067 98.2476 24.3067C99.8779 24.3067 101.182 24.8399 102.169 25.9229C103.107 26.9642 103.578 28.3194 103.578 29.972C103.578 31.6772 103.095 33.0681 102.124 34.1645ZM90.6492 16.8796C89.0463 16.8796 87.7936 15.7785 87.7936 13.9417C87.7936 12.0692 89.0222 10.9222 90.7432 10.9222C92.44 10.9222 93.5754 12.1164 93.5754 13.8482C93.5754 15.9429 92.1006 16.8796 90.6492 16.8796ZM92.0358 26.3713H89.3224V31.7506C89.3224 33.1156 89.8041 33.7924 90.7606 33.7924C91.2006 33.7924 91.5616 33.7603 91.8528 33.6852L91.9226 35.5476C91.436 35.7299 90.7997 35.8222 90.0103 35.8222C89.0438 35.8222 88.2794 35.5301 87.7345 34.9339C87.1831 34.3448 86.9111 33.3492 86.9111 31.9527V26.3713H85.2965V24.5289H86.9111V22.5043L89.3224 21.7756V24.5289H92.0358V26.3713ZM83.3676 34.478C82.3636 35.3748 80.9718 35.8206 79.1863 35.8206C77.5316 35.8206 76.2084 35.5002 75.2094 34.8657L75.7806 32.817C76.8573 33.4516 78.0404 33.7736 79.3277 33.7736C80.2576 33.7736 80.9767 33.5621 81.4933 33.1477C82.0066 32.7319 82.265 32.1746 82.265 31.4676C82.265 30.8538 82.0521 30.3297 81.6297 29.9022C81.2009 29.4781 80.5007 29.0863 79.5129 28.7184C76.829 27.7196 75.4845 26.2549 75.4845 24.3275C75.4845 23.0681 75.9534 22.0325 76.9038 21.229C77.8526 20.4265 79.1084 20.0229 80.6735 20.0229C82.069 20.0229 83.2312 20.2676 84.1587 20.7501L83.5381 22.7545C82.6731 22.2853 81.6899 22.0475 80.5932 22.0475C79.7263 22.0475 79.0467 22.2681 78.5577 22.6831C78.1489 23.0681 77.9436 23.5308 77.9436 24.0753C77.9436 24.6784 78.1791 25.1817 78.6486 25.582C79.0597 25.9446 79.8037 26.3371 80.8775 26.7615C82.2026 27.2888 83.1705 27.9149 83.7952 28.6304C84.4157 29.3433 84.7284 30.23 84.7284 31.2905C84.7284 32.5973 84.2718 33.6628 83.3676 34.478ZM70.9912 16.8796C70.2533 16.8796 69.598 16.5986 69.1886 15.8955H69.1649L69.0953 16.75H67.8661C67.8896 16.364 67.9133 15.7327 67.9133 15.1462V8.44149H69.3517V11.8346H69.3754C69.7263 11.2846 70.3469 10.9222 71.2014 10.9222C72.5944 10.9222 73.5886 12.0806 73.5773 13.8124C73.5773 15.8607 72.2785 16.8796 70.9912 16.8796ZM69.3023 34.3922C68.386 35.3595 67.2514 35.8456 65.8912 35.8456C64.4269 35.8456 63.3741 35.3231 62.735 34.2717V40.0835H60.275V28.1655C60.275 26.9827 60.2435 25.7724 60.1844 24.5289H62.3415L62.4838 26.2822H62.526C63.3514 24.9663 64.5916 24.3067 66.2611 24.3067C67.5672 24.3067 68.6563 24.8185 69.5288 25.853C70.4037 26.8827 70.8392 28.2444 70.8392 29.9281C70.8392 31.8153 70.328 33.2969 69.3023 34.3922ZM59.7041 16.75H58.2654V8.44149H59.7041V16.75ZM57.1454 34.3922C56.2313 35.3595 55.0919 35.8456 53.7354 35.8456C52.2667 35.8456 51.2156 35.3231 50.5761 34.2717V40.0835H48.1191V28.1655C48.1191 26.9827 48.0872 25.7724 48.0248 24.5289H50.1878L50.3237 26.2822H50.3666C51.1906 24.9663 52.433 24.3067 54.1051 24.3067C55.4103 24.3067 56.4965 24.8185 57.3745 25.853C58.2443 26.8827 58.6822 28.2444 58.6822 29.9281C58.6822 31.8153 58.1712 33.2969 57.1454 34.3922ZM47.518 15.1819C47.518 13.7539 48.7933 13.0164 50.9004 13.0287V12.9351C50.9004 12.5608 50.7477 11.9393 49.7411 11.9393C49.179 11.9393 48.5951 12.1164 48.2084 12.3617L47.9274 11.4249C48.3482 11.1675 49.0857 10.9222 49.9874 10.9222C51.8124 10.9222 52.3398 12.0806 52.3398 13.3325V15.3808C52.3398 15.8955 52.3626 16.3988 52.433 16.75H51.1333L51.0288 16.1187H50.9937C50.6541 16.5629 50.0573 16.8796 49.3083 16.8796C48.1613 16.8796 47.518 16.0478 47.518 15.1819ZM44.5548 16.75H43.138L41.0196 11.0506H42.5766L43.5004 13.9417C43.6644 14.4444 43.7814 14.9009 43.887 15.3701H43.9228C44.0274 14.9009 44.1567 14.4558 44.3085 13.9417L45.2214 11.0506H46.7316L44.5548 16.75ZM43.9959 35.5951L42.5629 31.091H37.5754L36.2075 35.5951H33.6601L38.5963 20.2501H41.6505L46.6164 35.5951H43.9959ZM26.6207 35.0186C26.6207 36.4086 25.4874 37.5348 24.0987 37.5348H13.2893C11.8986 37.5348 10.7656 36.4086 10.7656 35.0186V10.9986C10.7656 9.60858 11.8986 8.47884 13.2893 8.47884H24.0987C25.4874 8.47884 26.6207 9.60858 26.6207 10.9986V35.0186ZM36.2065 8.86221H38.044L40.607 16.75H39.0506L38.3373 14.5143H35.8436L35.1645 16.75H33.678L36.2065 8.86221ZM56.0049 11.0506V16.75H54.5665V11.0506H56.0049ZM55.2917 8.6748C55.783 8.6748 56.0878 9.01493 56.0992 9.45844C56.0992 9.88025 55.783 10.2318 55.2794 10.2318C54.7995 10.2318 54.4843 9.88025 54.4843 9.45844C54.4843 9.01493 54.8115 8.6748 55.2917 8.6748ZM63.803 11.9393C63.2409 11.9393 62.6561 12.1164 62.27 12.3617L61.989 11.4249C62.4098 11.1675 63.1476 10.9222 64.0483 10.9222C65.8744 10.9222 66.4017 12.0806 66.4017 13.3325V15.3808C66.4017 15.8955 66.4242 16.3988 66.494 16.75H65.1953L65.0903 16.1187H65.0555C64.716 16.5629 64.1189 16.8796 63.3699 16.8796C62.2223 16.8796 61.579 16.0478 61.579 15.1819C61.579 13.7539 62.8543 13.0164 64.9614 13.0287V12.9351C64.9614 12.5608 64.8087 11.9393 63.803 11.9393ZM75.2191 8.44149H76.6578V16.75H75.2191V8.44149ZM81.1187 10.9222C82.9675 10.9222 83.5772 12.4428 83.5772 13.6954C83.5772 13.9651 83.5531 14.1763 83.5298 14.3047H79.7144C79.7491 15.334 80.5452 15.7785 81.4695 15.7785C82.1366 15.7785 82.6049 15.6745 83.0499 15.5212L83.2603 16.5043C82.7687 16.7149 82.0901 16.8663 81.2707 16.8663C79.4219 16.8663 78.3334 15.7327 78.3334 13.9888C78.3334 12.4081 79.2926 10.9222 81.1187 10.9222ZM96.2347 11.0506L96.3045 11.9051H96.3403C96.5973 11.46 97.2179 10.9222 98.1661 10.9222C99.1609 10.9222 100.191 11.5655 100.191 13.3673V16.75H98.7517V13.5313C98.7517 12.7125 98.4464 12.092 97.6629 12.092C97.0898 12.092 96.6913 12.5013 96.5383 12.9351C96.4917 13.0521 96.4684 13.2276 96.4684 13.3917V16.75H95.0294V12.7483C95.0294 12.092 95.0061 11.5428 94.982 11.0506H96.2347ZM119.077 10.9222C120.926 10.9222 121.535 12.4428 121.535 13.6954C121.535 13.9651 121.511 14.1763 121.488 14.3047H117.673C117.707 15.334 118.504 15.7785 119.428 15.7785C120.095 15.7785 120.563 15.6745 121.007 15.5212L121.218 16.5043C120.727 16.7149 120.048 16.8663 119.229 16.8663C117.38 16.8663 116.292 15.7327 116.292 13.9888C116.292 12.4081 117.251 10.9222 119.077 10.9222ZM126.762 -1.3272e-06H5.59253C2.50904 -1.3272e-06 0 2.50845 0 5.59358V40.4146C0 43.4945 2.50904 46 5.59253 46H126.762C129.845 46 132.355 43.4945 132.355 40.4146V5.59358C132.355 2.50845 129.845 -1.3272e-06 126.762 -1.3272e-06ZM37.4828 11.4834C37.3301 11.0035 37.2018 10.4657 37.0848 10.0092H37.0604C36.9441 10.4657 36.8151 11.0148 36.6861 11.4834L36.0782 13.4267H38.1024L37.4828 11.4834ZM50.9004 15.0647C50.9345 14.9597 50.9345 14.8541 50.9345 14.7485V13.9651C49.9165 13.9537 48.9461 14.1633 48.9461 15.0289C48.9461 15.5914 49.3083 15.85 49.7648 15.85C50.3497 15.85 50.759 15.4747 50.9004 15.0647ZM116.807 25.9846C116.004 25.9846 115.352 26.327 114.849 26.9909C114.439 27.5208 114.194 28.1596 114.12 28.8991H119.242C119.255 28.1729 119.1 27.5459 118.766 27.0117C118.34 26.3313 117.685 25.9846 116.807 25.9846ZM40.0562 22.2996H40.0133C39.8587 22.9528 39.6192 23.9141 39.2822 25.1908L38.0069 29.1994H42.1266L40.8344 25.1908C40.6946 24.7791 40.4338 23.8151 40.0562 22.2996ZM65.4649 26.2581C64.8557 26.2581 64.3115 26.4577 63.816 26.8596C63.3227 27.267 62.9988 27.7944 62.8461 28.4474C62.7704 28.7535 62.735 29.0015 62.735 29.2003V31.0416C62.735 31.8477 62.9777 32.5291 63.4732 33.0831C63.9655 33.6319 64.6079 33.9107 65.3935 33.9107C66.3244 33.9107 67.0441 33.5562 67.5607 32.8411C68.078 32.1272 68.3373 31.1865 68.3373 30.0145C68.3373 28.9397 68.0926 28.0508 67.6085 27.3545C67.0733 26.6292 66.3591 26.2581 65.4649 26.2581ZM98.1578 26.1051C97.1738 26.1051 96.4218 26.5418 95.9086 27.4211C95.4636 28.1447 95.2457 29.0281 95.2457 30.0728C95.2457 31.0911 95.4636 31.9592 95.9086 32.6844C96.4343 33.5621 97.1788 33.9988 98.1395 33.9988C99.0744 33.9988 99.8139 33.5562 100.342 32.6572C100.8 31.9228 101.029 31.0416 101.029 30.0305C101.029 29.018 100.81 28.1447 100.372 27.4211C99.8488 26.5418 99.1152 26.1051 98.1578 26.1051ZM53.3048 26.2581C52.6989 26.2581 52.1514 26.4577 51.6565 26.8596C51.162 27.267 50.841 27.7944 50.6882 28.4474C50.6135 28.7535 50.5761 29.0015 50.5761 29.2003V31.0416C50.5761 31.8477 50.8182 32.5291 51.3147 33.0831C51.8069 33.6319 52.4493 33.9107 53.2372 33.9107C54.161 33.9107 54.8872 33.5562 55.4022 32.8411C55.9182 32.1272 56.1739 31.1865 56.1739 30.0145C56.1739 28.9397 55.9341 28.0508 55.4477 27.3545C54.9139 26.6292 54.2016 26.2581 53.3048 26.2581ZM12.2983 32.469H25.0877V13.5541H12.2983V32.469ZM18.692 33.5864C17.9746 33.5864 17.3898 34.1726 17.3898 34.8923C17.3898 35.611 17.9746 36.1955 18.692 36.1955C19.4124 36.1955 19.9956 35.611 19.9956 34.8923C19.9956 34.1726 19.4124 33.5864 18.692 33.5864ZM17.4391 11.6241H19.9452C20.1093 11.6241 20.2432 11.4892 20.2432 11.3316C20.2432 11.166 20.1093 11.032 19.9452 11.032H17.4391C17.2799 11.032 17.1435 11.166 17.1435 11.3316C17.1435 11.4892 17.2799 11.6241 17.4391 11.6241Z" fill="#2D2D2B"/>
</svg>
