<svg width="142" height="46" viewBox="0 0 142 46" fill="none" xmlns="http://www.w3.org/2000/svg">
<path d="M61.4614 9.79865C61.1736 9.79865 60.9299 9.92766 60.7295 10.1853C60.529 10.443 60.4283 10.7685 60.4283 11.162C60.4283 11.5711 60.534 11.9042 60.7461 12.1609C60.9574 12.4176 61.2161 12.5458 61.523 12.5458C61.8108 12.5458 62.0545 12.4166 62.255 12.1579C62.4554 11.8993 62.5561 11.574 62.5561 11.1825C62.5561 10.7714 62.4504 10.4381 62.24 10.1824C62.0296 9.92666 61.77 9.79865 61.4614 9.79865Z" fill="#2D2D2B"/>
<path d="M67.1707 9.81973C67.0858 9.81973 66.9694 9.82854 66.8222 9.8461C66.8421 10.2395 66.8521 10.6509 66.8521 11.0795C66.8521 11.5499 66.8613 12.0158 66.8812 12.4782C67.0093 12.5039 67.1366 12.5166 67.2647 12.5166C67.6881 12.5166 68.0008 12.3853 68.2046 12.1228C68.4084 11.8599 68.5099 11.5399 68.5099 11.1623C68.5099 10.7844 68.4001 10.4664 68.1797 10.2077C67.9592 9.94907 67.6232 9.81973 67.1707 9.81973Z" fill="#2D2D2B"/>
<path d="M76.8323 9.78401C76.6925 9.78401 76.5453 9.79865 76.3898 9.82826C76.4114 10.1999 76.4222 10.621 76.4222 11.0912C76.4713 11.0951 76.5287 11.0971 76.5935 11.0971C77.3114 11.0971 77.6707 10.8699 77.6707 10.4153C77.6707 9.99462 77.3912 9.78401 76.8323 9.78401Z" fill="#2D2D2B"/>
<path d="M73.0741 9.77509C73.0741 9.85212 72.9002 10.4009 72.5526 11.4218H73.6264C73.2904 10.4068 73.1215 9.85794 73.1215 9.77509H73.0741Z" fill="#2D2D2B"/>
<path d="M45.2007 9.77509C45.2007 9.85212 45.026 10.4009 44.6783 11.4218H45.7522C45.4161 10.4068 45.2473 9.85794 45.2473 9.77509H45.2007Z" fill="#2D2D2B"/>
<path d="M57.2782 9.7872C57.0936 9.7872 56.9305 9.80084 56.7891 9.82846C56.8108 10.1336 56.8216 10.5306 56.8216 11.0206C56.9297 11.0245 57.0212 11.0264 57.0961 11.0264C57.7216 11.0264 58.0344 10.8091 58.0344 10.3743C58.0344 9.98276 57.7823 9.7872 57.2782 9.7872Z" fill="#2D2D2B"/>
<path d="M53.0519 9.81973C52.967 9.81973 52.8514 9.82854 52.7034 9.8461C52.7233 10.2395 52.7333 10.6509 52.7333 11.0795C52.7333 11.5499 52.7433 12.0158 52.7624 12.4782C52.8905 12.5039 53.0186 12.5166 53.1459 12.5166C53.5693 12.5166 53.8828 12.3853 54.0858 12.1228C54.2896 11.8599 54.3911 11.5399 54.3911 11.1623C54.3911 10.7844 54.2813 10.4664 54.0609 10.2077C53.8404 9.94907 53.5044 9.81973 53.0519 9.81973Z" fill="#2D2D2B"/>
<path d="M85.8481 9.79865C85.5603 9.79865 85.3166 9.92766 85.1161 10.1853C84.9157 10.443 84.815 10.7685 84.815 11.162C84.815 11.5711 84.9207 11.9042 85.1328 12.1609C85.3441 12.4176 85.6028 12.5458 85.9097 12.5458C86.1975 12.5458 86.4412 12.4166 86.6417 12.1579C86.8421 11.8993 86.9428 11.574 86.9428 11.1825C86.9428 10.7714 86.8371 10.4381 86.6267 10.1824C86.4163 9.92666 86.1567 9.79865 85.8481 9.79865Z" fill="#2D2D2B"/>
<path d="M80.3716 9.78401C80.2318 9.78401 80.0838 9.79865 79.9291 9.82826C79.9507 10.1999 79.9615 10.621 79.9615 11.0912C80.0106 11.0951 80.0671 11.0971 80.1329 11.0971C80.8507 11.0971 81.2092 10.8699 81.2092 10.4153C81.2092 9.99462 80.9305 9.78401 80.3716 9.78401Z" fill="#2D2D2B"/>
<path d="M72.6781 23.6246C71.8513 23.6246 71.1359 23.9332 70.5329 24.5496C69.9282 25.1666 69.627 25.9829 69.627 26.9998C69.627 28.0172 69.9282 28.8334 70.5329 29.4497C71.1359 30.0667 71.8513 30.3754 72.6781 30.3754C73.504 30.3754 74.2186 30.0667 74.8233 29.4497C75.4272 28.8334 75.7291 28.0172 75.7291 26.9998C75.7291 25.9829 75.4272 25.1666 74.8233 24.5496C74.2186 23.9332 73.504 23.6246 72.6781 23.6246Z" fill="#2D2D2B"/>
<path d="M62.4763 23.6246C61.6495 23.6246 60.935 23.9332 60.3311 24.5496C59.7272 25.1666 59.4253 25.9829 59.4253 26.9998C59.4253 28.0172 59.7272 28.8334 60.3311 29.4497C60.935 30.0667 61.6495 30.3754 62.4763 30.3754C63.3023 30.3754 64.0176 30.0667 64.6215 29.4497C65.2254 28.8334 65.5273 28.0172 65.5273 26.9998C65.5273 25.9829 65.2254 25.1666 64.6215 24.5496C64.0176 23.9332 63.3023 23.6246 62.4763 23.6246Z" fill="#2D2D2B"/>
<path d="M110.89 19.6966H107.954V24.4635H110.89C111.627 24.4635 112.218 24.215 112.663 23.7197C113.108 23.2242 113.331 22.6777 113.331 22.0796C113.331 21.4823 113.108 20.9358 112.663 20.44C112.218 19.9445 111.627 19.6966 110.89 19.6966Z" fill="#2D2D2B"/>
<path d="M121.53 27.5906C121.098 27.96 120.882 28.3915 120.882 28.8883C120.882 29.3448 121.078 29.7074 121.473 29.9745C121.866 30.2416 122.318 30.3754 122.826 30.3754C123.551 30.3754 124.209 30.1051 124.8 29.5644C125.392 29.0244 125.686 28.3856 125.686 27.648C125.191 27.2412 124.447 27.0382 123.456 27.0382C122.603 27.0382 121.962 27.2231 121.53 27.5906Z" fill="#2D2D2B"/>
<path d="M96.436 23.6243C95.788 23.6243 95.2257 23.828 94.7491 24.2349C94.2724 24.6416 93.9447 25.1882 93.7667 25.8751H99.1825C99.1443 25.3402 98.8989 24.833 98.4481 24.3496C97.9964 23.8664 97.326 23.6243 96.436 23.6243Z" fill="#2D2D2B"/>
<path d="M82.8036 23.6246C81.9892 23.6246 81.2897 23.9332 80.7058 24.5496C80.121 25.1666 79.8282 25.9829 79.8282 26.9998C79.8282 28.0172 80.121 28.8334 80.7058 29.4497C81.2897 30.0667 81.9892 30.3754 82.8036 30.3754C83.6295 30.3754 84.3324 30.07 84.9105 29.4594C85.4886 28.8499 85.7781 28.0288 85.7781 26.9998C85.7781 25.9701 85.4886 25.1501 84.9105 24.5405C84.3324 23.9297 83.6295 23.6246 82.8036 23.6246Z" fill="#2D2D2B"/>
<path d="M131.179 35.7894H129.368L131.541 31.0797L127.69 22.3276H129.596L132.38 29.0401H132.419L135.126 22.3276H137.033L131.179 35.7894ZM127.365 31.671H125.686V30.3752H125.611C124.912 31.4423 123.888 31.9765 122.54 31.9765C121.549 31.9765 120.719 31.6902 120.052 31.118C119.384 30.5465 119.051 29.7904 119.051 28.8497C119.051 27.8324 119.444 27.0348 120.234 26.4567C121.021 25.8777 121.994 25.5892 123.151 25.5892C124.18 25.5892 125.026 25.7786 125.686 26.1604V25.8936C125.686 25.2074 125.451 24.6573 124.982 24.245C124.511 23.8313 123.933 23.6244 123.246 23.6244C122.737 23.6244 122.277 23.7459 121.864 23.987C121.451 24.2284 121.168 24.5592 121.015 24.9777L119.413 24.2915C119.629 23.7326 120.055 23.2143 120.69 22.7377C121.326 22.261 122.165 22.0232 123.208 22.0232C124.403 22.0232 125.394 22.3735 126.183 23.0714C126.97 23.771 127.365 24.7564 127.365 26.0275V31.671ZM118.022 31.671H116.268V18.0182H118.022V31.671ZM113.855 24.9878C113.009 25.7572 112.009 26.1416 110.852 26.1416H107.954V31.671H106.2V18.0182H110.852C112.009 18.0182 113.009 18.4032 113.855 19.1717C114.701 19.942 115.123 20.911 115.123 22.0797C115.123 23.2491 114.701 24.219 113.855 24.9878ZM101.032 27.3242H93.6527C93.7026 28.2649 94.0179 29.0086 94.596 29.5542C95.1749 30.1017 95.8512 30.3752 96.6272 30.3752C97.8858 30.3752 98.7375 29.8404 99.1825 28.773L100.745 29.4213C100.441 30.1455 99.9378 30.7538 99.2391 31.2428C98.5404 31.7318 97.682 31.9765 96.6655 31.9765C95.2539 31.9765 94.1069 31.5067 93.2235 30.565C92.3402 29.6251 91.8976 28.4365 91.8976 26.9997C91.8976 25.6389 92.3268 24.4702 93.1853 23.4906C94.0428 22.5132 95.14 22.0232 96.4742 22.0232C97.86 22.0232 98.9687 22.4748 99.8014 23.3774C100.634 24.2798 101.051 25.4874 101.051 26.9997L101.032 27.3242ZM91.7562 13.0889H91.0276C91.0276 13.0083 90.7573 12.5823 90.2166 11.8112C89.6493 10.9986 89.3266 10.443 89.2484 10.1441H89.201C89.25 10.5746 89.275 10.9642 89.275 11.3125C89.275 11.7982 89.2883 12.3906 89.3166 13.0889H88.5904C88.6195 12.479 88.6345 11.8093 88.6345 11.0792C88.6345 10.3615 88.6195 9.75061 88.5904 9.24696H89.4663C89.4663 9.35127 89.71 9.76716 90.1958 10.495C90.7132 11.2683 91.0101 11.7924 91.0866 12.0679H91.1307C91.0833 11.6293 91.06 11.2358 91.06 10.8875C91.06 10.3547 91.0467 9.80751 91.0184 9.24696H91.7562C91.7288 9.73506 91.7155 10.3455 91.7155 11.0792C91.7155 11.819 91.7288 12.4891 91.7562 13.0889ZM90.8687 31.671H89.1153V18.0182H90.8687V31.671ZM87.2021 12.5988C86.832 12.9965 86.3745 13.1951 85.8297 13.1951C85.3106 13.1951 84.8756 13.0125 84.5254 12.6476C84.1761 12.2827 84.0006 11.819 84.0006 11.2563C84.0006 10.6526 84.1852 10.1519 84.5554 9.75452C84.9255 9.35717 85.3822 9.15829 85.927 9.15829C86.4469 9.15829 86.8819 9.34053 87.2313 9.70411C87.5815 10.0684 87.757 10.5323 87.757 11.0971C87.757 11.7011 87.5723 12.2018 87.2021 12.5988ZM87.4559 31.1947C87.4559 32.7966 86.9917 34.0134 86.0643 34.8468C85.136 35.6786 84.0047 36.0955 82.6705 36.0955C81.5634 36.0955 80.6609 35.8193 79.9622 35.2663C79.2627 34.713 78.7603 34.08 78.4558 33.3681L80.0579 32.7017C80.2359 33.2092 80.5627 33.6358 81.0402 33.9786C81.516 34.322 82.0592 34.4936 82.6705 34.4936C83.6362 34.4936 84.3957 34.2041 84.9488 33.6257C85.502 33.0477 85.7781 32.2628 85.7781 31.2711V30.3752H85.7016C85.3963 30.8327 84.9638 31.2135 84.4048 31.519C83.8458 31.8241 83.2162 31.9765 82.5175 31.9765C81.3097 31.9765 80.2675 31.4998 79.3899 30.5465C78.5124 29.5925 78.074 28.4105 78.074 26.9997C78.074 25.5892 78.5124 24.4061 79.3899 23.4522C80.2675 22.4998 81.3097 22.0232 82.5175 22.0232C83.2162 22.0232 83.8458 22.1752 84.4048 22.4797C84.9638 22.7858 85.3963 23.1669 85.7016 23.6244H85.7781V22.3276H87.4559V31.1947ZM76.6225 11.6312C76.5302 11.6312 76.4645 11.6293 76.4254 11.6251C76.4254 11.9951 76.4362 12.4829 76.4578 13.0889H75.6286C75.6535 12.5206 75.6668 11.8506 75.6668 11.0792C75.6668 10.3712 75.6535 9.76034 75.6286 9.24696H76.1418C76.2141 9.24696 76.3539 9.24405 76.561 9.23822C76.7673 9.23207 76.9461 9.22908 77.0975 9.22908C77.4718 9.22908 77.787 9.31392 78.0449 9.48286C78.3028 9.65213 78.4317 9.90882 78.4317 10.2529C78.4317 10.7234 78.257 11.0704 77.9077 11.2947C77.5591 11.5192 77.1299 11.6312 76.6225 11.6312ZM76.1293 30.5556C75.2259 31.5031 74.0756 31.9765 72.6782 31.9765C71.2791 31.9765 70.1287 31.5031 69.2262 30.5556C68.3237 29.6091 67.872 28.4238 67.872 26.9997C67.872 25.5759 68.3237 24.3906 69.2262 23.4437C70.1287 22.4966 71.2791 22.0232 72.6782 22.0232C74.0756 22.0232 75.2259 22.4966 76.1293 23.4437C77.0318 24.3906 77.4826 25.5759 77.4826 26.9997C77.4826 28.4238 77.0318 29.6091 76.1293 30.5556ZM65.9281 30.5556C65.0248 31.5031 63.8744 31.9765 62.4762 31.9765C61.0779 31.9765 59.9276 31.5031 59.0251 30.5556C58.1226 29.6091 57.6709 28.4238 57.6709 26.9997C57.6709 25.5759 58.1226 24.3906 59.0251 23.4437C59.9276 22.4966 61.0779 22.0232 62.4762 22.0232C63.8744 22.0232 65.0248 22.4966 65.9281 23.4437C66.8306 24.3906 67.2815 25.5759 67.2815 26.9997C67.2815 28.4238 66.8306 29.6091 65.9281 30.5556ZM56.8241 11.5575C56.8241 12.0631 56.8333 12.5736 56.8507 13.0889H56.0306C56.0564 12.4949 56.0688 11.8249 56.0688 11.0792C56.0688 10.3634 56.0564 9.75253 56.0306 9.24696H56.5413C56.6004 9.24696 56.7235 9.24405 56.9115 9.23822C57.0995 9.23207 57.2725 9.22908 57.4322 9.22908C58.3347 9.22908 58.7863 9.53809 58.7863 10.1558C58.7863 10.6455 58.5285 10.9869 58.0136 11.1796V11.2241C58.2124 11.279 58.3862 11.434 58.5359 11.6888C58.6848 11.9435 58.887 12.4101 59.1407 13.0889H58.2673C58.0385 12.3926 57.8639 11.9627 57.7416 11.7992C57.6202 11.6361 57.423 11.5543 57.1518 11.5543C57.0379 11.5543 56.9281 11.5555 56.8241 11.5575ZM55.2495 29.9551C53.9652 31.3026 52.2933 31.9765 50.2338 31.9765C48.2633 31.9765 46.5889 31.2935 45.2097 29.9269C43.8298 28.5603 43.1411 26.8658 43.1411 24.8448C43.1411 22.8241 43.8298 21.13 45.2097 19.763C46.5889 18.3964 48.2633 17.7137 50.2338 17.7137C51.2128 17.7137 52.1469 17.9041 53.0378 18.2859C53.927 18.6667 54.639 19.1759 55.173 19.8114L53.9719 21.0127C53.0694 19.932 51.8234 19.3913 50.2338 19.3913C48.7973 19.3913 47.5554 19.8963 46.5065 20.9077C45.4576 21.9182 44.9328 23.231 44.9328 24.8448C44.9328 26.46 45.4576 27.7716 46.5065 28.7832C47.5554 29.793 48.7973 30.2986 50.2338 30.2986C51.7593 30.2986 53.0311 29.7904 54.0476 28.773C54.7089 28.1118 55.0898 27.1904 55.1913 26.0083H50.2338V24.3681H56.8507C56.9148 24.7249 56.9464 25.0677 56.9464 25.3978C56.9464 27.3041 56.3808 28.8241 55.2495 29.9551ZM37.5963 25.8296C37.3368 26.0207 37.0507 26.1789 36.767 26.3352C35.0843 27.2661 33.3974 28.187 31.718 29.1233C31.4918 29.2497 31.357 29.2439 31.1699 29.0502C29.9746 27.8159 28.7685 26.5916 27.5557 25.3737C27.3794 25.1963 27.3744 25.0992 27.5557 24.9212C28.9681 23.5295 30.373 22.1304 31.7721 20.7248C31.9368 20.5585 32.0549 20.5399 32.2603 20.6565C33.9223 21.5982 35.5925 22.5272 37.2586 23.4613C37.7743 23.7502 38.1753 24.1235 38.1977 24.735C38.1794 25.2256 37.9473 25.5706 37.5963 25.8296ZM30.3447 29.8778C24.7792 32.924 19.2186 35.9791 13.6572 39.0318C13.5657 39.0825 13.4801 39.1647 13.4326 39.1955C17.768 34.8137 22.1058 30.4351 26.4311 26.0431C26.699 25.7705 26.8246 25.8069 27.0649 26.0574C28.1638 27.2011 29.2784 28.3299 30.398 29.4528C30.5951 29.6507 30.6117 29.7316 30.3447 29.8778ZM11.1086 39.3512C10.6087 38.9668 10.4174 38.4528 10.4182 37.8397C10.419 35.2572 10.414 32.6744 10.4124 30.0916C10.4115 28.2649 10.4124 26.4392 10.4124 24.6135C10.4149 24.6135 10.4174 24.6135 10.4199 24.6135C10.4199 20.2524 10.4215 15.8913 10.4174 11.5305C10.4174 10.9954 10.5213 10.5067 10.9006 10.1025C11.0479 9.94525 11.1535 9.90333 11.3349 10.0876C14.2686 13.0817 17.2098 16.0694 20.1511 19.057C22.055 20.9919 23.9582 22.9274 25.8705 24.8545C26.056 25.041 26.0726 25.1398 25.8763 25.3354C21.1991 29.9851 16.5261 34.6399 11.8664 39.3063C11.5811 39.5916 11.3814 39.5617 11.1086 39.3512ZM12.9469 9.84095C18.9192 13.1876 24.8906 16.5359 30.8671 19.8755C31.1416 20.0285 31.1358 20.1143 30.9236 20.3229C29.5878 21.6371 28.2627 22.9622 26.9385 24.2882C26.7954 24.4312 26.7089 24.5137 26.5168 24.3181C21.7656 19.4719 17.0069 14.6335 12.2498 9.79287C12.2099 9.75228 12.1766 9.70445 12.0959 9.60472C12.4528 9.60147 12.704 9.70511 12.9469 9.84095ZM44.0627 11.2004C44.5218 10.018 44.7514 9.3669 44.7514 9.24696H45.8669C45.8669 9.35909 46.0748 10.0008 46.4916 11.1725C46.9075 12.3438 47.1154 12.9826 47.1154 13.0889H46.1713C46.1713 12.9588 46.0815 12.5914 45.9026 11.9851H44.5393C44.3547 12.5813 44.2623 12.9491 44.2623 13.0889H43.374C43.374 13.0122 43.6035 12.3828 44.0627 11.2004ZM47.7542 9.24696H48.6301C48.6301 9.35127 48.873 9.76716 49.3596 10.495C49.877 11.2683 50.1739 11.7924 50.2504 12.0679H50.2945C50.2471 11.6293 50.2238 11.2358 50.2238 10.8875C50.2238 10.3547 50.2097 9.80751 50.1822 9.24696H50.92C50.8926 9.73506 50.8784 10.3455 50.8784 11.0792C50.8784 11.819 50.8926 12.4891 50.92 13.0889H50.1914C50.1914 13.0083 49.9211 12.5823 49.3796 11.8112C48.8131 10.9986 48.4903 10.443 48.4122 10.1441H48.3648C48.4138 10.5746 48.4388 10.9642 48.4388 11.3125C48.4388 11.7982 48.4521 12.3906 48.4795 13.0889H47.7542C47.7833 12.479 47.7983 11.8093 47.7983 11.0792C47.7983 10.3615 47.7833 9.75061 47.7542 9.24696ZM51.9515 9.24696H52.468C52.552 9.24696 52.6784 9.24405 52.8456 9.23822C53.012 9.23207 53.1218 9.22908 53.1725 9.22908C53.8829 9.22908 54.3978 9.40616 54.7172 9.76034C55.0374 10.1145 55.1971 10.5395 55.1971 11.035C55.1971 11.5939 55.0183 12.0816 54.6598 12.4985C54.3021 12.916 53.8005 13.1243 53.1551 13.1243C52.8639 13.1243 52.463 13.1122 51.9515 13.0889C51.9764 12.4949 51.9897 11.8249 51.9897 11.0792C51.9897 10.3634 51.9764 9.75253 51.9515 9.24696ZM60.1688 9.75452C60.5389 9.35717 60.9956 9.15829 61.5412 9.15829C62.0603 9.15829 62.4953 9.34053 62.8455 9.70411C63.1948 10.0684 63.3704 10.5323 63.3704 11.0971C63.3704 11.7011 63.1857 12.2018 62.8156 12.5988C62.4454 12.9965 61.9888 13.1951 61.4439 13.1951C60.9241 13.1951 60.489 13.0125 60.1397 12.6476C59.7895 12.2827 59.614 11.819 59.614 11.2563C59.614 10.6526 59.7986 10.1519 60.1688 9.75452ZM64.2038 9.24696H65.0389C65.0132 9.74246 65.0007 10.3533 65.0007 11.0792C65.0007 11.821 65.0132 12.491 65.0389 13.0889H64.2038C64.2296 12.479 64.2421 11.8093 64.2421 11.0792C64.2421 10.3615 64.2296 9.75061 64.2038 9.24696ZM66.0695 9.24696H66.5861C66.6709 9.24696 66.7965 9.24405 66.9637 9.23822C67.1309 9.23207 67.2407 9.22908 67.2914 9.22908C68.0018 9.22908 68.5167 9.40616 68.8361 9.76034C69.1555 10.1145 69.316 10.5395 69.316 11.035C69.316 11.5939 69.1364 12.0816 68.7787 12.4985C68.421 12.916 67.9186 13.1243 67.274 13.1243C66.9828 13.1243 66.5811 13.1122 66.0695 13.0889C66.0953 12.4949 66.1086 11.8249 66.1086 11.0792C66.1086 10.3634 66.0953 9.75253 66.0695 9.24696ZM71.937 11.2004C72.3962 10.018 72.6258 9.3669 72.6258 9.24696H73.7412C73.7412 9.35909 73.9491 10.0008 74.365 11.1725C74.7818 12.3438 74.9897 12.9826 74.9897 13.0889H74.0456C74.0456 12.9588 73.9558 12.5914 73.777 11.9851H72.4136C72.229 12.5813 72.1358 12.9491 72.1358 13.0889H71.2483C71.2483 13.0122 71.4779 12.3828 71.937 11.2004ZM79.1678 9.24696H79.6811C79.7534 9.24696 79.8932 9.24405 80.0995 9.23822C80.3066 9.23207 80.4854 9.22908 80.6368 9.22908C81.0103 9.22908 81.3263 9.31392 81.5842 9.48286C81.8421 9.65213 81.971 9.90882 81.971 10.2529C81.971 10.7234 81.7963 11.0704 81.447 11.2947C81.0976 11.5192 80.6692 11.6312 80.1618 11.6312C80.0695 11.6312 80.0038 11.6293 79.9639 11.6251C79.9639 11.9951 79.9747 12.4829 79.9963 13.0889H79.1678C79.1928 12.5206 79.2061 11.8506 79.2061 11.0792C79.2061 10.3712 79.1928 9.76034 79.1678 9.24696ZM134.994 0.0205078H6.91635C3.48685 0.0205078 0.705322 2.80154 0.705322 6.23112V39.7677C0.705322 43.1973 3.48685 45.9789 6.91635 45.9789H134.994C138.423 45.9789 141.203 43.1973 141.203 39.7677V6.23112C141.203 2.80154 138.423 0.0205078 134.994 0.0205078Z" fill="#2D2D2B"/>
</svg>
